<?xml version="1.0" encoding="utf-8" standalone="no"?>
<!DOCTYPE svg PUBLIC "-//W3C//DTD SVG 1.1//EN"
  "http://www.w3.org/Graphics/SVG/1.1/DTD/svg11.dtd">
<!-- Created with matplotlib (https://matplotlib.org/) -->
<svg height="720pt" version="1.1" viewBox="0 0 1440 720" width="1440pt" xmlns="http://www.w3.org/2000/svg" xmlns:xlink="http://www.w3.org/1999/xlink">
 <metadata>
  <rdf:RDF xmlns:cc="http://creativecommons.org/ns#" xmlns:dc="http://purl.org/dc/elements/1.1/" xmlns:rdf="http://www.w3.org/1999/02/22-rdf-syntax-ns#">
   <cc:Work>
    <dc:type rdf:resource="http://purl.org/dc/dcmitype/StillImage"/>
    <dc:date>2021-01-16T13:26:18.172410</dc:date>
    <dc:format>image/svg+xml</dc:format>
    <dc:creator>
     <cc:Agent>
      <dc:title>Matplotlib v3.3.2, https://matplotlib.org/</dc:title>
     </cc:Agent>
    </dc:creator>
   </cc:Work>
  </rdf:RDF>
 </metadata>
 <defs>
  <style type="text/css">*{stroke-linecap:butt;stroke-linejoin:round;}</style>
 </defs>
 <g id="figure_1">
  <g id="patch_1">
   <path d="M 0 720 
L 1440 720 
L 1440 0 
L 0 0 
z
"/>
  </g>
  <g id="axes_1">
   <g id="patch_2">
    <path d="M 180 640.8 
L 687.272727 640.8 
L 687.272727 86.4 
L 180 86.4 
z
"/>
   </g>
   <g id="matplotlib.axis_1">
    <g id="xtick_1">
     <g id="line2d_1">
      <defs>
       <path d="M 0 0 
L 0 3.5 
" id="m0b34014cee" style="stroke:#ffffff;stroke-width:0.8;"/>
      </defs>
      <g>
       <use style="fill:#ffffff;stroke:#ffffff;stroke-width:0.8;" x="203.057851" xlink:href="#m0b34014cee" y="640.8"/>
      </g>
     </g>
     <g id="text_1">
      <!-- 0 -->
      <g style="fill:#ffffff;" transform="translate(200.218007 655.559375)scale(0.1 -0.1)">
       <defs>
        <path d="M 29.5 9 
Q 32.703125 9 35.453125 10.890625 
Q 38.203125 12.796875 40.5 15.9375 
Q 42.796875 19.09375 44.546875 23.1875 
Q 46.296875 27.296875 47.5 31.6875 
Q 48.703125 36.09375 49.34375 40.4375 
Q 50 44.796875 50 48.59375 
Q 50 54.90625 48.296875 57.703125 
Q 46.59375 60.5 42.703125 60.5 
Q 39.5 60.5 36.703125 58.59375 
Q 33.90625 56.703125 31.65625 53.5 
Q 29.40625 50.296875 27.65625 46.1875 
Q 25.90625 42.09375 24.65625 37.6875 
Q 23.40625 33.296875 22.796875 28.890625 
Q 22.203125 24.5 22.203125 20.796875 
Q 22.203125 14.5 23.890625 11.75 
Q 25.59375 9 29.5 9 
z
M 27.796875 -1.5 
Q 23.203125 -1.5 19.953125 0.046875 
Q 16.703125 1.59375 14.59375 4.34375 
Q 12.5 7.09375 11.546875 10.890625 
Q 10.59375 14.703125 10.59375 19.203125 
Q 10.59375 28.59375 12.84375 37.84375 
Q 15.09375 47.09375 19.390625 54.4375 
Q 23.703125 61.796875 30 66.34375 
Q 36.296875 70.90625 44.296875 70.90625 
Q 48.90625 70.90625 52.15625 69.34375 
Q 55.40625 67.796875 57.5 65.046875 
Q 59.59375 62.296875 60.59375 58.5 
Q 61.59375 54.703125 61.59375 50.203125 
Q 61.59375 40.796875 59.34375 31.546875 
Q 57.09375 22.296875 52.75 14.9375 
Q 48.40625 7.59375 42.15625 3.046875 
Q 35.90625 -1.5 27.796875 -1.5 
z
" id="Ubuntu-MediumItalic-48"/>
       </defs>
       <use xlink:href="#Ubuntu-MediumItalic-48"/>
      </g>
     </g>
    </g>
    <g id="xtick_2">
     <g id="line2d_2">
      <g>
       <use style="fill:#ffffff;stroke:#ffffff;stroke-width:0.8;" x="260.992151" xlink:href="#m0b34014cee" y="640.8"/>
      </g>
     </g>
     <g id="text_2">
      <!-- 25 -->
      <g style="fill:#ffffff;" transform="translate(255.312463 655.559375)scale(0.1 -0.1)">
       <defs>
        <path d="M 42.296875 70.90625 
Q 46.703125 70.90625 50.140625 69.546875 
Q 53.59375 68.203125 55.9375 66 
Q 58.296875 63.796875 59.5 60.84375 
Q 60.703125 57.90625 60.703125 54.796875 
Q 60.703125 50.296875 59.453125 46.75 
Q 58.203125 43.203125 55.796875 40.140625 
Q 53.40625 37.09375 49.90625 34.140625 
Q 46.40625 31.203125 42 27.796875 
Q 39.40625 25.796875 36.59375 23.75 
Q 33.796875 21.703125 31.25 19.546875 
Q 28.703125 17.40625 26.5 15.046875 
Q 24.296875 12.703125 22.796875 10.09375 
L 52.703125 10.09375 
L 50.296875 0 
L 7 0 
Q 7.90625 5.796875 10 10.25 
Q 12.09375 14.703125 15.140625 18.34375 
Q 18.203125 22 22 25.140625 
Q 25.796875 28.296875 30 31.5 
Q 34.203125 34.703125 37.59375 37.34375 
Q 41 40 43.390625 42.5 
Q 45.796875 45 47.09375 47.5 
Q 48.40625 50 48.40625 52.90625 
Q 48.40625 56.203125 46.296875 58.296875 
Q 44.203125 60.40625 40.296875 60.40625 
Q 35.40625 60.40625 31.34375 58.296875 
Q 27.296875 56.203125 24.09375 53.59375 
L 20 62.703125 
Q 24.40625 66.40625 30.09375 68.65625 
Q 35.796875 70.90625 42.296875 70.90625 
z
" id="Ubuntu-MediumItalic-50"/>
        <path d="M 11.40625 12.796875 
Q 13.90625 11.40625 17.59375 10.15625 
Q 21.296875 8.90625 25.90625 8.90625 
Q 33.703125 8.90625 38.34375 12.25 
Q 43 15.59375 43 22.09375 
Q 43 25.59375 41.09375 27.890625 
Q 39.203125 30.203125 35.890625 31.546875 
Q 32.59375 32.90625 28.046875 33.5 
Q 23.5 34.09375 18.203125 34.203125 
Q 21.40625 43.5 24.25 52.09375 
Q 27.09375 60.703125 29.40625 69.296875 
L 64.09375 69.296875 
L 61.703125 59.203125 
L 37.296875 59.203125 
Q 36.703125 57.296875 36 55.046875 
Q 35.296875 52.796875 34.59375 50.59375 
Q 33.90625 48.40625 33.25 46.40625 
Q 32.59375 44.40625 32.09375 43 
Q 43.703125 41.703125 49.390625 36.5 
Q 55.09375 31.296875 55.09375 23.09375 
Q 55.09375 17.703125 53.296875 13.203125 
Q 51.5 8.703125 47.84375 5.453125 
Q 44.203125 2.203125 38.703125 0.34375 
Q 33.203125 -1.5 25.796875 -1.5 
Q 23.09375 -1.5 20.34375 -1.09375 
Q 17.59375 -0.703125 15.046875 -0.09375 
Q 12.5 0.5 10.390625 1.25 
Q 8.296875 2 6.90625 2.796875 
z
" id="Ubuntu-MediumItalic-53"/>
       </defs>
       <use xlink:href="#Ubuntu-MediumItalic-50"/>
       <use x="56.799988" xlink:href="#Ubuntu-MediumItalic-53"/>
      </g>
     </g>
    </g>
    <g id="xtick_3">
     <g id="line2d_3">
      <g>
       <use style="fill:#ffffff;stroke:#ffffff;stroke-width:0.8;" x="318.92645" xlink:href="#m0b34014cee" y="640.8"/>
      </g>
     </g>
     <g id="text_3">
      <!-- 50 -->
      <g style="fill:#ffffff;" transform="translate(313.246763 655.559375)scale(0.1 -0.1)">
       <use xlink:href="#Ubuntu-MediumItalic-53"/>
       <use x="56.799988" xlink:href="#Ubuntu-MediumItalic-48"/>
      </g>
     </g>
    </g>
    <g id="xtick_4">
     <g id="line2d_4">
      <g>
       <use style="fill:#ffffff;stroke:#ffffff;stroke-width:0.8;" x="376.86075" xlink:href="#m0b34014cee" y="640.8"/>
      </g>
     </g>
     <g id="text_4">
      <!-- 75 -->
      <g style="fill:#ffffff;" transform="translate(371.181063 655.559375)scale(0.1 -0.1)">
       <defs>
        <path d="M 14.203125 0 
Q 16.296875 7.703125 20.25 16.09375 
Q 24.203125 24.5 29.09375 32.453125 
Q 34 40.40625 39.34375 47.296875 
Q 44.703125 54.203125 49.59375 58.90625 
L 18.09375 58.90625 
L 20.59375 69.296875 
L 66.59375 69.296875 
L 64.40625 59.90625 
Q 61.703125 57.59375 58.34375 53.9375 
Q 55 50.296875 51.34375 45.6875 
Q 47.703125 41.09375 44.046875 35.6875 
Q 40.40625 30.296875 37.15625 24.4375 
Q 33.90625 18.59375 31.15625 12.390625 
Q 28.40625 6.203125 26.703125 0 
z
" id="Ubuntu-MediumItalic-55"/>
       </defs>
       <use xlink:href="#Ubuntu-MediumItalic-55"/>
       <use x="56.799988" xlink:href="#Ubuntu-MediumItalic-53"/>
      </g>
     </g>
    </g>
    <g id="xtick_5">
     <g id="line2d_5">
      <g>
       <use style="fill:#ffffff;stroke:#ffffff;stroke-width:0.8;" x="434.79505" xlink:href="#m0b34014cee" y="640.8"/>
      </g>
     </g>
     <g id="text_5">
      <!-- 100 -->
      <g style="fill:#ffffff;" transform="translate(426.275518 655.559375)scale(0.1 -0.1)">
       <defs>
        <path d="M 21.296875 54.90625 
Q 27.59375 57.203125 34.296875 60.796875 
Q 41 64.40625 46.59375 69.296875 
L 55.203125 69.296875 
L 38.5 0 
L 26.40625 0 
L 39.09375 52.703125 
Q 35.90625 50.59375 31.546875 48.640625 
Q 27.203125 46.703125 23 45.296875 
z
" id="Ubuntu-MediumItalic-49"/>
       </defs>
       <use xlink:href="#Ubuntu-MediumItalic-49"/>
       <use x="56.799988" xlink:href="#Ubuntu-MediumItalic-48"/>
       <use x="113.599976" xlink:href="#Ubuntu-MediumItalic-48"/>
      </g>
     </g>
    </g>
    <g id="xtick_6">
     <g id="line2d_6">
      <g>
       <use style="fill:#ffffff;stroke:#ffffff;stroke-width:0.8;" x="492.729349" xlink:href="#m0b34014cee" y="640.8"/>
      </g>
     </g>
     <g id="text_6">
      <!-- 125 -->
      <g style="fill:#ffffff;" transform="translate(484.209818 655.559375)scale(0.1 -0.1)">
       <use xlink:href="#Ubuntu-MediumItalic-49"/>
       <use x="56.799988" xlink:href="#Ubuntu-MediumItalic-50"/>
       <use x="113.599976" xlink:href="#Ubuntu-MediumItalic-53"/>
      </g>
     </g>
    </g>
    <g id="xtick_7">
     <g id="line2d_7">
      <g>
       <use style="fill:#ffffff;stroke:#ffffff;stroke-width:0.8;" x="550.663649" xlink:href="#m0b34014cee" y="640.8"/>
      </g>
     </g>
     <g id="text_7">
      <!-- 150 -->
      <g style="fill:#ffffff;" transform="translate(542.144118 655.559375)scale(0.1 -0.1)">
       <use xlink:href="#Ubuntu-MediumItalic-49"/>
       <use x="56.799988" xlink:href="#Ubuntu-MediumItalic-53"/>
       <use x="113.599976" xlink:href="#Ubuntu-MediumItalic-48"/>
      </g>
     </g>
    </g>
    <g id="xtick_8">
     <g id="line2d_8">
      <g>
       <use style="fill:#ffffff;stroke:#ffffff;stroke-width:0.8;" x="608.597948" xlink:href="#m0b34014cee" y="640.8"/>
      </g>
     </g>
     <g id="text_8">
      <!-- 175 -->
      <g style="fill:#ffffff;" transform="translate(600.078417 655.559375)scale(0.1 -0.1)">
       <use xlink:href="#Ubuntu-MediumItalic-49"/>
       <use x="56.799988" xlink:href="#Ubuntu-MediumItalic-55"/>
       <use x="113.599976" xlink:href="#Ubuntu-MediumItalic-53"/>
      </g>
     </g>
    </g>
    <g id="xtick_9">
     <g id="line2d_9">
      <g>
       <use style="fill:#ffffff;stroke:#ffffff;stroke-width:0.8;" x="666.532248" xlink:href="#m0b34014cee" y="640.8"/>
      </g>
     </g>
     <g id="text_9">
      <!-- 200 -->
      <g style="fill:#ffffff;" transform="translate(658.012717 655.559375)scale(0.1 -0.1)">
       <use xlink:href="#Ubuntu-MediumItalic-50"/>
       <use x="56.799988" xlink:href="#Ubuntu-MediumItalic-48"/>
       <use x="113.599976" xlink:href="#Ubuntu-MediumItalic-48"/>
      </g>
     </g>
    </g>
   </g>
   <g id="matplotlib.axis_2">
    <g id="ytick_1">
     <g id="line2d_10">
      <defs>
       <path d="M 0 0 
L -3.5 0 
" id="m6991baff0a" style="stroke:#ffffff;stroke-width:0.8;"/>
      </defs>
      <g>
       <use style="fill:#ffffff;stroke:#ffffff;stroke-width:0.8;" x="180" xlink:href="#m6991baff0a" y="632.163297"/>
      </g>
     </g>
     <g id="text_10">
      <!-- 0.0 -->
      <g style="fill:#ffffff;" transform="translate(159.153125 636.042984)scale(0.1 -0.1)">
       <defs>
        <path d="M 15 14.59375 
Q 18.203125 14.59375 20.203125 12.796875 
Q 22.203125 11 22.203125 7.5 
Q 22.203125 5.5 21.453125 3.84375 
Q 20.703125 2.203125 19.5 1.046875 
Q 18.296875 -0.09375 16.75 -0.6875 
Q 15.203125 -1.296875 13.59375 -1.296875 
Q 10.40625 -1.296875 8.453125 0.453125 
Q 6.5 2.203125 6.5 5.703125 
Q 6.5 9.90625 9.09375 12.25 
Q 11.703125 14.59375 15 14.59375 
z
" id="Ubuntu-MediumItalic-46"/>
       </defs>
       <use xlink:href="#Ubuntu-MediumItalic-48"/>
       <use x="56.799988" xlink:href="#Ubuntu-MediumItalic-46"/>
       <use x="81.674973" xlink:href="#Ubuntu-MediumItalic-48"/>
      </g>
     </g>
    </g>
    <g id="ytick_2">
     <g id="line2d_11">
      <g>
       <use style="fill:#ffffff;stroke:#ffffff;stroke-width:0.8;" x="180" xlink:href="#m6991baff0a" y="514.024439"/>
      </g>
     </g>
     <g id="text_11">
      <!-- 0.1 -->
      <g style="fill:#ffffff;" transform="translate(158.990625 517.904127)scale(0.1 -0.1)">
       <use xlink:href="#Ubuntu-MediumItalic-48"/>
       <use x="56.799988" xlink:href="#Ubuntu-MediumItalic-46"/>
       <use x="83.299973" xlink:href="#Ubuntu-MediumItalic-49"/>
      </g>
     </g>
    </g>
    <g id="ytick_3">
     <g id="line2d_12">
      <g>
       <use style="fill:#ffffff;stroke:#ffffff;stroke-width:0.8;" x="180" xlink:href="#m6991baff0a" y="395.885582"/>
      </g>
     </g>
     <g id="text_12">
      <!-- 0.2 -->
      <g style="fill:#ffffff;" transform="translate(158.990625 399.76527)scale(0.1 -0.1)">
       <use xlink:href="#Ubuntu-MediumItalic-48"/>
       <use x="56.799988" xlink:href="#Ubuntu-MediumItalic-46"/>
       <use x="83.299973" xlink:href="#Ubuntu-MediumItalic-50"/>
      </g>
     </g>
    </g>
    <g id="ytick_4">
     <g id="line2d_13">
      <g>
       <use style="fill:#ffffff;stroke:#ffffff;stroke-width:0.8;" x="180" xlink:href="#m6991baff0a" y="277.746725"/>
      </g>
     </g>
     <g id="text_13">
      <!-- 0.3 -->
      <g style="fill:#ffffff;" transform="translate(158.990625 281.626412)scale(0.1 -0.1)">
       <defs>
        <path d="M 45.5 36.796875 
Q 49.296875 35.09375 52 31.1875 
Q 54.703125 27.296875 54.703125 21.796875 
Q 54.703125 17.09375 52.890625 12.890625 
Q 51.09375 8.703125 47.5 5.5 
Q 43.90625 2.296875 38.40625 0.390625 
Q 32.90625 -1.5 25.40625 -1.5 
Q 19.09375 -1.5 14.140625 -0.09375 
Q 9.203125 1.296875 6.296875 2.90625 
L 10.703125 12.796875 
Q 12.90625 11.40625 16.796875 10 
Q 20.703125 8.59375 26 8.59375 
Q 29.40625 8.59375 32.453125 9.390625 
Q 35.5 10.203125 37.75 11.84375 
Q 40 13.5 41.296875 16 
Q 42.59375 18.5 42.59375 22 
Q 42.59375 27 38.75 29.390625 
Q 34.90625 31.796875 28.296875 31.796875 
L 24.296875 31.796875 
L 26.59375 41.5 
L 31.59375 41.5 
Q 34.40625 41.5 37.203125 42.140625 
Q 40 42.796875 42.203125 44.140625 
Q 44.40625 45.5 45.796875 47.640625 
Q 47.203125 49.796875 47.203125 52.90625 
Q 47.203125 56.703125 44.703125 58.640625 
Q 42.203125 60.59375 37.90625 60.59375 
Q 34.203125 60.59375 30.546875 59.34375 
Q 26.90625 58.09375 23.703125 56.296875 
L 20.703125 65.5 
Q 24.5 67.796875 29.5 69.34375 
Q 34.5 70.90625 39.90625 70.90625 
Q 44.90625 70.90625 48.546875 69.546875 
Q 52.203125 68.203125 54.59375 65.953125 
Q 57 63.703125 58.203125 60.75 
Q 59.40625 57.796875 59.40625 54.59375 
Q 59.40625 48.703125 55.75 44 
Q 52.09375 39.296875 45.5 36.796875 
z
" id="Ubuntu-MediumItalic-51"/>
       </defs>
       <use xlink:href="#Ubuntu-MediumItalic-48"/>
       <use x="56.799988" xlink:href="#Ubuntu-MediumItalic-46"/>
       <use x="83.299973" xlink:href="#Ubuntu-MediumItalic-51"/>
      </g>
     </g>
    </g>
    <g id="ytick_5">
     <g id="line2d_14">
      <g>
       <use style="fill:#ffffff;stroke:#ffffff;stroke-width:0.8;" x="180" xlink:href="#m6991baff0a" y="159.607867"/>
      </g>
     </g>
     <g id="text_14">
      <!-- 0.4 -->
      <g style="fill:#ffffff;" transform="translate(158.990625 163.487555)scale(0.1 -0.1)">
       <defs>
        <path d="M 47.203125 54.703125 
Q 44.09375 52 40.75 48.640625 
Q 37.40625 45.296875 34.046875 41.59375 
Q 30.703125 37.90625 27.546875 34.046875 
Q 24.40625 30.203125 21.796875 26.40625 
L 40.40625 26.40625 
z
M 62.203125 69.296875 
L 51.90625 26.40625 
L 59.59375 26.40625 
L 57.203125 16.59375 
L 49.5 16.59375 
L 45.5 0 
L 33.90625 0 
L 37.796875 16.59375 
L 7.59375 16.59375 
L 9.59375 25.203125 
Q 12.59375 29.796875 17.140625 35.546875 
Q 21.703125 41.296875 27.140625 47.296875 
Q 32.59375 53.296875 38.59375 59.046875 
Q 44.59375 64.796875 50.40625 69.296875 
z
" id="Ubuntu-MediumItalic-52"/>
       </defs>
       <use xlink:href="#Ubuntu-MediumItalic-48"/>
       <use x="56.799988" xlink:href="#Ubuntu-MediumItalic-46"/>
       <use x="83.299973" xlink:href="#Ubuntu-MediumItalic-52"/>
      </g>
     </g>
    </g>
   </g>
   <g id="line2d_15">
    <path clip-path="url(#pa55d19b941)" d="M 203.057851 111.6 
L 205.375223 157.019195 
L 207.692595 197.972682 
L 210.009967 234.709043 
L 212.327339 267.476862 
L 214.644711 296.524725 
L 216.962083 322.101213 
L 219.279455 344.454912 
L 221.596827 363.834404 
L 223.914199 380.488275 
L 226.231571 394.665107 
L 228.548943 406.613484 
L 230.866315 416.581991 
L 233.183687 424.819211 
L 235.501059 431.573728 
L 237.818431 437.094126 
L 240.135803 441.628989 
L 242.453175 445.4269 
L 244.770547 448.736444 
L 249.405291 454.884763 
L 251.722663 458.170949 
L 256.357407 465.315617 
L 270.261639 487.730566 
L 272.579011 491.084823 
L 274.896383 494.208854 
L 277.213755 497.112855 
L 279.531127 499.819053 
L 284.165871 504.726944 
L 288.800615 509.110341 
L 293.435359 513.147059 
L 302.704847 520.778289 
L 309.656962 526.205282 
L 316.609078 531.291548 
L 321.243822 534.454407 
L 328.195938 538.858046 
L 335.148054 542.925741 
L 342.10017 546.741489 
L 351.369658 551.550202 
L 360.639146 556.066169 
L 369.908634 560.291595 
L 376.86075 563.225549 
L 383.812866 565.881413 
L 388.44761 567.462429 
L 395.399726 569.545983 
L 411.62133 574.117389 
L 418.573446 576.417722 
L 434.79505 581.996549 
L 441.747166 584.038583 
L 448.699282 585.832785 
L 457.968769 587.976856 
L 471.873001 590.945623 
L 488.094605 594.158622 
L 518.220441 599.807186 
L 527.489929 601.273135 
L 536.759417 602.430857 
L 548.346277 603.852256 
L 555.298393 604.935015 
L 571.519997 607.692219 
L 578.472113 608.546538 
L 587.741601 609.329837 
L 599.32846 610.244375 
L 608.597948 611.212971 
L 638.723784 614.640117 
L 645.6759 615.180467 
L 652.628016 615.516013 
L 659.580132 615.594246 
L 664.214876 615.477517 
L 664.214876 615.477517 
" style="fill:none;stroke:#8dd3c7;stroke-linecap:square;stroke-opacity:0.7;stroke-width:2.5;"/>
   </g>
   <g id="line2d_16">
    <path clip-path="url(#pa55d19b941)" d="M 203.057851 352.626308 
L 205.375223 361.975264 
L 207.692595 370.848686 
L 210.009967 379.262373 
L 212.327339 387.232124 
L 214.644711 394.773737 
L 216.962083 401.903013 
L 219.279455 408.635749 
L 221.596827 414.987745 
L 223.914199 420.974799 
L 226.231571 426.612711 
L 228.548943 431.917279 
L 230.866315 436.904302 
L 233.183687 441.589578 
L 235.501059 445.988908 
L 237.818431 450.118089 
L 240.135803 453.992921 
L 242.453175 457.629202 
L 244.770547 461.042732 
L 247.087919 464.249309 
L 251.722663 470.104131 
L 256.357407 475.304008 
L 260.992151 479.943895 
L 265.626895 484.11808 
L 270.261639 487.92085 
L 274.896383 491.445548 
L 281.848499 496.361183 
L 288.800615 500.979767 
L 302.704847 509.886843 
L 307.339591 512.637121 
L 311.974334 515.079529 
L 314.291706 516.144933 
L 316.609078 517.08495 
L 318.92645 517.883442 
L 321.243822 518.533305 
L 325.878566 519.512371 
L 332.830682 520.750567 
L 337.465426 521.866737 
L 339.782798 522.626284 
L 342.10017 523.570918 
L 344.417542 524.7236 
L 349.052286 527.487902 
L 356.004402 531.992064 
L 358.321774 533.378269 
L 360.639146 534.619146 
L 362.956518 535.662052 
L 365.27389 536.454345 
L 367.591262 536.960096 
L 369.908634 537.210242 
L 372.226006 537.252434 
L 374.543378 537.134321 
L 379.178122 536.607787 
L 383.812866 536.011845 
L 386.130238 535.806973 
L 388.44761 535.727702 
L 390.764982 535.810386 
L 393.082354 536.046197 
L 395.399726 536.415013 
L 400.03447 537.471161 
L 404.669214 538.817842 
L 416.256074 542.42082 
L 420.890818 543.668353 
L 425.525562 544.74215 
L 430.160306 545.611315 
L 434.79505 546.244949 
L 439.429794 546.635473 
L 448.699282 547.053294 
L 455.651397 547.478087 
L 460.286141 548.013298 
L 467.238257 549.139771 
L 474.190373 550.206909 
L 478.825117 550.631187 
L 481.142489 550.699991 
L 485.777233 550.508245 
L 490.411977 549.995893 
L 501.998837 548.383996 
L 506.633581 548.03105 
L 511.268325 547.981541 
L 515.903069 548.190485 
L 520.537813 548.608465 
L 527.489929 549.519278 
L 541.394161 551.593159 
L 546.028905 552.060929 
L 550.663649 552.276039 
L 555.298393 552.1873 
L 562.250509 551.674719 
L 571.519997 550.88958 
L 576.154741 550.709236 
L 583.106857 550.776965 
L 597.011089 551.097905 
L 603.963204 550.86703 
L 617.867436 550.191782 
L 622.50218 550.185737 
L 627.136924 550.417526 
L 631.771668 550.96414 
L 636.406412 551.902568 
L 638.723784 552.542772 
L 641.041156 553.309801 
L 643.358528 554.213278 
L 645.6759 555.262827 
L 647.993272 556.468073 
L 650.310644 557.838638 
L 652.628016 559.384146 
L 654.945388 561.114222 
L 657.26276 563.038488 
L 659.580132 565.166569 
L 661.897504 567.508088 
L 664.214876 570.072669 
L 664.214876 570.072669 
" style="fill:none;stroke:#feffb3;stroke-linecap:square;stroke-opacity:0.7;stroke-width:2.5;"/>
   </g>
   <g id="patch_3">
    <path d="M 180 640.8 
L 180 86.4 
" style="fill:none;stroke:#ffffff;stroke-linecap:square;stroke-linejoin:miter;stroke-width:0.8;"/>
   </g>
   <g id="patch_4">
    <path d="M 687.272727 640.8 
L 687.272727 86.4 
" style="fill:none;stroke:#ffffff;stroke-linecap:square;stroke-linejoin:miter;stroke-width:0.8;"/>
   </g>
   <g id="patch_5">
    <path d="M 180 640.8 
L 687.272727 640.8 
" style="fill:none;stroke:#ffffff;stroke-linecap:square;stroke-linejoin:miter;stroke-width:0.8;"/>
   </g>
   <g id="patch_6">
    <path d="M 180 86.4 
L 687.272727 86.4 
" style="fill:none;stroke:#ffffff;stroke-linecap:square;stroke-linejoin:miter;stroke-width:0.8;"/>
   </g>
   <g id="legend_1">
    <g id="patch_7">
     <path d="M 612.322727 379.709375 
L 680.272727 379.709375 
Q 682.272727 379.709375 682.272727 377.709375 
L 682.272727 349.490625 
Q 682.272727 347.490625 680.272727 347.490625 
L 612.322727 347.490625 
Q 610.322727 347.490625 610.322727 349.490625 
L 610.322727 377.709375 
Q 610.322727 379.709375 612.322727 379.709375 
z
" style="opacity:0.8;stroke:#cccccc;stroke-linejoin:miter;"/>
    </g>
    <g id="line2d_17">
     <path d="M 614.322727 355.75 
L 634.322727 355.75 
" style="fill:none;stroke:#8dd3c7;stroke-linecap:square;stroke-opacity:0.7;stroke-width:2.5;"/>
    </g>
    <g id="line2d_18"/>
    <g id="text_15">
     <!-- loss -->
     <g style="fill:#ffffff;" transform="translate(642.322727 359.25)scale(0.1 -0.1)">
      <defs>
       <path d="M 27.296875 -1 
Q 22.59375 -0.90625 19.34375 0.1875 
Q 16.09375 1.296875 14.140625 3.1875 
Q 12.203125 5.09375 11.34375 7.6875 
Q 10.5 10.296875 10.5 13.40625 
Q 10.5 16.59375 11.25 20.140625 
Q 12 23.703125 12.90625 27.203125 
L 24.5 75.59375 
L 37.09375 77.59375 
Q 34 64.5 30.890625 51.546875 
Q 27.796875 38.59375 24.59375 25.5 
Q 24.09375 23.40625 23.5 21.34375 
Q 22.90625 19.296875 22.90625 17.296875 
Q 22.90625 15.59375 22.953125 14.140625 
Q 23 12.703125 23.75 11.640625 
Q 24.5 10.59375 26 9.890625 
Q 27.5 9.203125 29.90625 9 
z
" id="Ubuntu-MediumItalic-108"/>
       <path d="M 28.796875 -1.40625 
Q 19.5 -1.40625 14.59375 4.09375 
Q 9.703125 9.59375 9.703125 18.59375 
Q 9.703125 24.40625 11.5 30.59375 
Q 13.296875 36.796875 17 41.890625 
Q 20.703125 47 26.296875 50.296875 
Q 31.90625 53.59375 39.5 53.59375 
Q 48.796875 53.59375 53.6875 48.140625 
Q 58.59375 42.703125 58.59375 33.703125 
Q 58.59375 27.796875 56.84375 21.59375 
Q 55.09375 15.40625 51.4375 10.296875 
Q 47.796875 5.203125 42.140625 1.890625 
Q 36.5 -1.40625 28.796875 -1.40625 
z
M 38 43.40625 
Q 34.09375 43.40625 31.046875 41.15625 
Q 28 38.90625 25.953125 35.40625 
Q 23.90625 31.90625 22.796875 27.75 
Q 21.703125 23.59375 21.703125 19.703125 
Q 21.703125 14.703125 23.59375 11.796875 
Q 25.5 8.90625 30.296875 8.90625 
Q 34.203125 8.90625 37.25 11.15625 
Q 40.296875 13.40625 42.34375 16.84375 
Q 44.40625 20.296875 45.5 24.5 
Q 46.59375 28.703125 46.59375 32.5 
Q 46.59375 37.5 44.6875 40.453125 
Q 42.796875 43.40625 38 43.40625 
z
" id="Ubuntu-MediumItalic-111"/>
       <path d="M 22.40625 8.5 
Q 27.203125 8.5 30 10.046875 
Q 32.796875 11.59375 32.796875 14.796875 
Q 32.796875 17.40625 31 18.953125 
Q 29.203125 20.5 24.703125 22.59375 
Q 22.296875 23.703125 20.25 24.890625 
Q 18.203125 26.09375 16.703125 27.6875 
Q 15.203125 29.296875 14.296875 31.4375 
Q 13.40625 33.59375 13.40625 36.59375 
Q 13.40625 44.40625 19.09375 49 
Q 24.796875 53.59375 35.59375 53.59375 
Q 40.59375 53.59375 44.546875 52.546875 
Q 48.5 51.5 50.5 50.40625 
L 46.203125 41 
Q 44.5 42 41.296875 42.953125 
Q 38.09375 43.90625 34.59375 43.90625 
Q 32.90625 43.90625 31.25 43.59375 
Q 29.59375 43.296875 28.296875 42.59375 
Q 27 41.90625 26.140625 40.65625 
Q 25.296875 39.40625 25.296875 37.59375 
Q 25.296875 35.296875 27.140625 33.84375 
Q 29 32.40625 32.5 30.796875 
Q 35.796875 29.296875 38.09375 27.890625 
Q 40.40625 26.5 41.90625 24.75 
Q 43.40625 23 44.09375 20.84375 
Q 44.796875 18.703125 44.796875 15.703125 
Q 44.796875 12 43.296875 8.84375 
Q 41.796875 5.703125 38.9375 3.453125 
Q 36.09375 1.203125 31.890625 -0.09375 
Q 27.703125 -1.40625 22.296875 -1.40625 
Q 18.59375 -1.40625 15.640625 -0.90625 
Q 12.703125 -0.40625 10.5 0.25 
Q 8.296875 0.90625 6.796875 1.59375 
Q 5.296875 2.296875 4.5 2.796875 
L 8.796875 12.296875 
Q 9.5 11.90625 10.84375 11.25 
Q 12.203125 10.59375 13.953125 10 
Q 15.703125 9.40625 17.84375 8.953125 
Q 20 8.5 22.40625 8.5 
z
" id="Ubuntu-MediumItalic-115"/>
      </defs>
      <use xlink:href="#Ubuntu-MediumItalic-108"/>
      <use x="28.924988" xlink:href="#Ubuntu-MediumItalic-111"/>
      <use x="85.224976" xlink:href="#Ubuntu-MediumItalic-115"/>
      <use x="129.024963" xlink:href="#Ubuntu-MediumItalic-115"/>
     </g>
    </g>
    <g id="line2d_19">
     <path d="M 614.322727 370.359375 
L 634.322727 370.359375 
" style="fill:none;stroke:#feffb3;stroke-linecap:square;stroke-opacity:0.7;stroke-width:2.5;"/>
    </g>
    <g id="line2d_20"/>
    <g id="text_16">
     <!-- val_loss -->
     <g style="fill:#ffffff;" transform="translate(642.322727 373.859375)scale(0.1 -0.1)">
      <defs>
       <path d="M 19.5 0 
Q 17 10.203125 15 23.640625 
Q 13 37.09375 12.40625 52.296875 
L 24.796875 52.296875 
Q 24.90625 47.90625 25.15625 42.796875 
Q 25.40625 37.703125 25.796875 32.546875 
Q 26.203125 27.40625 26.75 22.59375 
Q 27.296875 17.796875 28 13.90625 
Q 30.59375 17.296875 33.59375 22.046875 
Q 36.59375 26.796875 39.390625 32.046875 
Q 42.203125 37.296875 44.5 42.59375 
Q 46.796875 47.90625 48.203125 52.296875 
L 60.796875 52.296875 
Q 58.40625 45.40625 54.796875 38.09375 
Q 51.203125 30.796875 47 23.890625 
Q 42.796875 17 38.34375 10.796875 
Q 33.90625 4.59375 29.90625 0 
z
" id="Ubuntu-MediumItalic-118"/>
       <path d="M 53 20.296875 
Q 52.703125 19.203125 52.390625 16.703125 
Q 52.09375 14.203125 52.09375 12 
Q 52.09375 9.09375 52.59375 6.34375 
Q 53.09375 3.59375 54.203125 0.796875 
L 43.40625 -0.796875 
Q 42.203125 1.59375 41.5 4.296875 
Q 39 2.09375 35.34375 0.34375 
Q 31.703125 -1.40625 27.09375 -1.40625 
Q 22.40625 -1.40625 19.046875 0.140625 
Q 15.703125 1.703125 13.59375 4.453125 
Q 11.5 7.203125 10.5 10.890625 
Q 9.5 14.59375 9.5 18.90625 
Q 9.5 26.203125 12.09375 32.5 
Q 14.703125 38.796875 19.34375 43.390625 
Q 24 48 30.390625 50.640625 
Q 36.796875 53.296875 44.40625 53.296875 
Q 48.296875 53.296875 52.25 52.640625 
Q 56.203125 52 60.203125 50.203125 
z
M 46.40625 42.90625 
Q 44.5 43.296875 42.09375 43.296875 
Q 37.59375 43.296875 33.796875 41.34375 
Q 30 39.40625 27.25 36.15625 
Q 24.5 32.90625 23 28.703125 
Q 21.5 24.5 21.5 19.90625 
Q 21.5 17.59375 21.890625 15.59375 
Q 22.296875 13.59375 23.25 12.09375 
Q 24.203125 10.59375 25.796875 9.6875 
Q 27.40625 8.796875 29.90625 8.796875 
Q 33.09375 8.796875 35.546875 10.140625 
Q 38 11.5 40.09375 13.796875 
Q 40.203125 16.40625 40.546875 18.703125 
Q 40.90625 21 41.5 23.296875 
z
" id="Ubuntu-MediumItalic-97"/>
       <path d="M -2 -8.40625 
L 48 -8.40625 
L 45.59375 -18.5 
L -4.296875 -18.5 
z
" id="Ubuntu-MediumItalic-95"/>
      </defs>
      <use xlink:href="#Ubuntu-MediumItalic-118"/>
      <use x="51.099991" xlink:href="#Ubuntu-MediumItalic-97"/>
      <use x="106.899979" xlink:href="#Ubuntu-MediumItalic-108"/>
      <use x="136.699966" xlink:href="#Ubuntu-MediumItalic-95"/>
      <use x="186.699951" xlink:href="#Ubuntu-MediumItalic-108"/>
      <use x="215.624939" xlink:href="#Ubuntu-MediumItalic-111"/>
      <use x="271.924927" xlink:href="#Ubuntu-MediumItalic-115"/>
      <use x="315.724915" xlink:href="#Ubuntu-MediumItalic-115"/>
     </g>
    </g>
   </g>
  </g>
  <g id="axes_2">
   <g id="patch_8">
    <path d="M 788.727273 640.8 
L 1296 640.8 
L 1296 86.4 
L 788.727273 86.4 
z
"/>
   </g>
   <g id="matplotlib.axis_3">
    <g id="xtick_10">
     <g id="line2d_21">
      <g>
       <use style="fill:#ffffff;stroke:#ffffff;stroke-width:0.8;" x="811.785124" xlink:href="#m0b34014cee" y="640.8"/>
      </g>
     </g>
     <g id="text_17">
      <!-- 0 -->
      <g style="fill:#ffffff;" transform="translate(808.94528 655.559375)scale(0.1 -0.1)">
       <use xlink:href="#Ubuntu-MediumItalic-48"/>
      </g>
     </g>
    </g>
    <g id="xtick_11">
     <g id="line2d_22">
      <g>
       <use style="fill:#ffffff;stroke:#ffffff;stroke-width:0.8;" x="869.719424" xlink:href="#m0b34014cee" y="640.8"/>
      </g>
     </g>
     <g id="text_18">
      <!-- 25 -->
      <g style="fill:#ffffff;" transform="translate(864.039736 655.559375)scale(0.1 -0.1)">
       <use xlink:href="#Ubuntu-MediumItalic-50"/>
       <use x="56.799988" xlink:href="#Ubuntu-MediumItalic-53"/>
      </g>
     </g>
    </g>
    <g id="xtick_12">
     <g id="line2d_23">
      <g>
       <use style="fill:#ffffff;stroke:#ffffff;stroke-width:0.8;" x="927.653723" xlink:href="#m0b34014cee" y="640.8"/>
      </g>
     </g>
     <g id="text_19">
      <!-- 50 -->
      <g style="fill:#ffffff;" transform="translate(921.974036 655.559375)scale(0.1 -0.1)">
       <use xlink:href="#Ubuntu-MediumItalic-53"/>
       <use x="56.799988" xlink:href="#Ubuntu-MediumItalic-48"/>
      </g>
     </g>
    </g>
    <g id="xtick_13">
     <g id="line2d_24">
      <g>
       <use style="fill:#ffffff;stroke:#ffffff;stroke-width:0.8;" x="985.588023" xlink:href="#m0b34014cee" y="640.8"/>
      </g>
     </g>
     <g id="text_20">
      <!-- 75 -->
      <g style="fill:#ffffff;" transform="translate(979.908335 655.559375)scale(0.1 -0.1)">
       <use xlink:href="#Ubuntu-MediumItalic-55"/>
       <use x="56.799988" xlink:href="#Ubuntu-MediumItalic-53"/>
      </g>
     </g>
    </g>
    <g id="xtick_14">
     <g id="line2d_25">
      <g>
       <use style="fill:#ffffff;stroke:#ffffff;stroke-width:0.8;" x="1043.522322" xlink:href="#m0b34014cee" y="640.8"/>
      </g>
     </g>
     <g id="text_21">
      <!-- 100 -->
      <g style="fill:#ffffff;" transform="translate(1035.002791 655.559375)scale(0.1 -0.1)">
       <use xlink:href="#Ubuntu-MediumItalic-49"/>
       <use x="56.799988" xlink:href="#Ubuntu-MediumItalic-48"/>
       <use x="113.599976" xlink:href="#Ubuntu-MediumItalic-48"/>
      </g>
     </g>
    </g>
    <g id="xtick_15">
     <g id="line2d_26">
      <g>
       <use style="fill:#ffffff;stroke:#ffffff;stroke-width:0.8;" x="1101.456622" xlink:href="#m0b34014cee" y="640.8"/>
      </g>
     </g>
     <g id="text_22">
      <!-- 125 -->
      <g style="fill:#ffffff;" transform="translate(1092.937091 655.559375)scale(0.1 -0.1)">
       <use xlink:href="#Ubuntu-MediumItalic-49"/>
       <use x="56.799988" xlink:href="#Ubuntu-MediumItalic-50"/>
       <use x="113.599976" xlink:href="#Ubuntu-MediumItalic-53"/>
      </g>
     </g>
    </g>
    <g id="xtick_16">
     <g id="line2d_27">
      <g>
       <use style="fill:#ffffff;stroke:#ffffff;stroke-width:0.8;" x="1159.390922" xlink:href="#m0b34014cee" y="640.8"/>
      </g>
     </g>
     <g id="text_23">
      <!-- 150 -->
      <g style="fill:#ffffff;" transform="translate(1150.87139 655.559375)scale(0.1 -0.1)">
       <use xlink:href="#Ubuntu-MediumItalic-49"/>
       <use x="56.799988" xlink:href="#Ubuntu-MediumItalic-53"/>
       <use x="113.599976" xlink:href="#Ubuntu-MediumItalic-48"/>
      </g>
     </g>
    </g>
    <g id="xtick_17">
     <g id="line2d_28">
      <g>
       <use style="fill:#ffffff;stroke:#ffffff;stroke-width:0.8;" x="1217.325221" xlink:href="#m0b34014cee" y="640.8"/>
      </g>
     </g>
     <g id="text_24">
      <!-- 175 -->
      <g style="fill:#ffffff;" transform="translate(1208.80569 655.559375)scale(0.1 -0.1)">
       <use xlink:href="#Ubuntu-MediumItalic-49"/>
       <use x="56.799988" xlink:href="#Ubuntu-MediumItalic-55"/>
       <use x="113.599976" xlink:href="#Ubuntu-MediumItalic-53"/>
      </g>
     </g>
    </g>
    <g id="xtick_18">
     <g id="line2d_29">
      <g>
       <use style="fill:#ffffff;stroke:#ffffff;stroke-width:0.8;" x="1275.259521" xlink:href="#m0b34014cee" y="640.8"/>
      </g>
     </g>
     <g id="text_25">
      <!-- 200 -->
      <g style="fill:#ffffff;" transform="translate(1266.739989 655.559375)scale(0.1 -0.1)">
       <use xlink:href="#Ubuntu-MediumItalic-50"/>
       <use x="56.799988" xlink:href="#Ubuntu-MediumItalic-48"/>
       <use x="113.599976" xlink:href="#Ubuntu-MediumItalic-48"/>
      </g>
     </g>
    </g>
   </g>
   <g id="matplotlib.axis_4">
    <g id="ytick_6">
     <g id="line2d_30">
      <g>
       <use style="fill:#ffffff;stroke:#ffffff;stroke-width:0.8;" x="788.727273" xlink:href="#m6991baff0a" y="633.236763"/>
      </g>
     </g>
     <g id="text_26">
      <!-- 0.88 -->
      <g style="fill:#ffffff;" transform="translate(762.03821 637.11645)scale(0.1 -0.1)">
       <defs>
        <path d="M 9.5 14.90625 
Q 9.5 21.5 13.390625 26.796875 
Q 17.296875 32.09375 25.09375 36.5 
Q 22.296875 38.796875 20.75 41.84375 
Q 19.203125 44.90625 19.203125 48.90625 
Q 19.203125 53.09375 20.75 57.046875 
Q 22.296875 61 25.390625 64.09375 
Q 28.5 67.203125 33 69.046875 
Q 37.5 70.90625 43.5 70.90625 
Q 47.90625 70.90625 51.34375 69.65625 
Q 54.796875 68.40625 57.140625 66.203125 
Q 59.5 64 60.75 61.09375 
Q 62 58.203125 62 54.90625 
Q 62 49.203125 58.796875 44.046875 
Q 55.59375 38.90625 47.703125 35 
Q 51.203125 32.59375 53.546875 29.25 
Q 55.90625 25.90625 55.90625 20.40625 
Q 55.90625 16 54.203125 12 
Q 52.5 8 49.140625 5 
Q 45.796875 2 40.84375 0.25 
Q 35.90625 -1.5 29.296875 -1.5 
Q 24.90625 -1.5 21.296875 -0.34375 
Q 17.703125 0.796875 15.046875 2.890625 
Q 12.40625 5 10.953125 8.046875 
Q 9.5 11.09375 9.5 14.90625 
z
M 44.09375 19.796875 
Q 44.09375 24.203125 41.046875 26.890625 
Q 38 29.59375 33.09375 31.703125 
Q 27.203125 29.09375 24.203125 25 
Q 21.203125 20.90625 21.203125 16.59375 
Q 21.203125 12.796875 23.5 10.546875 
Q 25.796875 8.296875 30.59375 8.296875 
Q 33.296875 8.296875 35.75 9.140625 
Q 38.203125 10 40.046875 11.5 
Q 41.90625 13 43 15.09375 
Q 44.09375 17.203125 44.09375 19.796875 
z
M 30.59375 49.796875 
Q 30.59375 46.09375 32.84375 43.640625 
Q 35.09375 41.203125 39.296875 39.40625 
Q 44.703125 42 47.59375 45.453125 
Q 50.5 48.90625 50.5 53.296875 
Q 50.5 56.5 48.546875 58.796875 
Q 46.59375 61.09375 42 61.09375 
Q 39.5 61.09375 37.390625 60.25 
Q 35.296875 59.40625 33.796875 57.84375 
Q 32.296875 56.296875 31.4375 54.25 
Q 30.59375 52.203125 30.59375 49.796875 
z
" id="Ubuntu-MediumItalic-56"/>
       </defs>
       <use xlink:href="#Ubuntu-MediumItalic-48"/>
       <use x="56.799988" xlink:href="#Ubuntu-MediumItalic-46"/>
       <use x="83.299973" xlink:href="#Ubuntu-MediumItalic-56"/>
       <use x="140.09996" xlink:href="#Ubuntu-MediumItalic-56"/>
      </g>
     </g>
    </g>
    <g id="ytick_7">
     <g id="line2d_31">
      <g>
       <use style="fill:#ffffff;stroke:#ffffff;stroke-width:0.8;" x="788.727273" xlink:href="#m6991baff0a" y="544.312305"/>
      </g>
     </g>
     <g id="text_27">
      <!-- 0.90 -->
      <g style="fill:#ffffff;" transform="translate(762.03821 548.191993)scale(0.1 -0.1)">
       <defs>
        <path d="M 26.40625 44.90625 
Q 26.40625 40.09375 28.90625 38 
Q 31.40625 35.90625 35.90625 35.90625 
Q 41.90625 35.90625 47.90625 38.5 
Q 48.703125 41 49.09375 43.640625 
Q 49.5 46.296875 49.5 48.90625 
Q 49.5 54 47.203125 57.453125 
Q 44.90625 60.90625 39.90625 60.90625 
Q 36.703125 60.90625 34.203125 59.59375 
Q 31.703125 58.296875 30 56.140625 
Q 28.296875 54 27.34375 51.09375 
Q 26.40625 48.203125 26.40625 44.90625 
z
M 9.90625 9.5 
Q 11.296875 9.40625 13 9.453125 
Q 14.703125 9.5 15.5 9.59375 
Q 27.296875 10.703125 34.5 15.5 
Q 41.703125 20.296875 45.5 29.40625 
Q 42.59375 27.90625 39 27.15625 
Q 35.40625 26.40625 32.203125 26.40625 
Q 23.90625 26.40625 19.296875 31.15625 
Q 14.703125 35.90625 14.703125 43.90625 
Q 14.703125 49.59375 16.546875 54.546875 
Q 18.40625 59.5 21.796875 63.140625 
Q 25.203125 66.796875 30 68.84375 
Q 34.796875 70.90625 40.796875 70.90625 
Q 50.09375 70.90625 55.640625 65.09375 
Q 61.203125 59.296875 61.203125 48.703125 
Q 61.203125 38.90625 58 30.046875 
Q 54.796875 21.203125 48.546875 14.453125 
Q 42.296875 7.703125 33 3.703125 
Q 23.703125 -0.296875 11.5 -0.296875 
Q 10.796875 -0.296875 10.046875 -0.296875 
Q 9.296875 -0.296875 8.203125 -0.203125 
z
" id="Ubuntu-MediumItalic-57"/>
       </defs>
       <use xlink:href="#Ubuntu-MediumItalic-48"/>
       <use x="56.799988" xlink:href="#Ubuntu-MediumItalic-46"/>
       <use x="83.299973" xlink:href="#Ubuntu-MediumItalic-57"/>
       <use x="140.09996" xlink:href="#Ubuntu-MediumItalic-48"/>
      </g>
     </g>
    </g>
    <g id="ytick_8">
     <g id="line2d_32">
      <g>
       <use style="fill:#ffffff;stroke:#ffffff;stroke-width:0.8;" x="788.727273" xlink:href="#m6991baff0a" y="455.387848"/>
      </g>
     </g>
     <g id="text_28">
      <!-- 0.92 -->
      <g style="fill:#ffffff;" transform="translate(762.03821 459.267535)scale(0.1 -0.1)">
       <use xlink:href="#Ubuntu-MediumItalic-48"/>
       <use x="56.799988" xlink:href="#Ubuntu-MediumItalic-46"/>
       <use x="83.299973" xlink:href="#Ubuntu-MediumItalic-57"/>
       <use x="140.09996" xlink:href="#Ubuntu-MediumItalic-50"/>
      </g>
     </g>
    </g>
    <g id="ytick_9">
     <g id="line2d_33">
      <g>
       <use style="fill:#ffffff;stroke:#ffffff;stroke-width:0.8;" x="788.727273" xlink:href="#m6991baff0a" y="366.46339"/>
      </g>
     </g>
     <g id="text_29">
      <!-- 0.94 -->
      <g style="fill:#ffffff;" transform="translate(762.03821 370.343078)scale(0.1 -0.1)">
       <use xlink:href="#Ubuntu-MediumItalic-48"/>
       <use x="56.799988" xlink:href="#Ubuntu-MediumItalic-46"/>
       <use x="83.299973" xlink:href="#Ubuntu-MediumItalic-57"/>
       <use x="140.09996" xlink:href="#Ubuntu-MediumItalic-52"/>
      </g>
     </g>
    </g>
    <g id="ytick_10">
     <g id="line2d_34">
      <g>
       <use style="fill:#ffffff;stroke:#ffffff;stroke-width:0.8;" x="788.727273" xlink:href="#m6991baff0a" y="277.538933"/>
      </g>
     </g>
     <g id="text_30">
      <!-- 0.96 -->
      <g style="fill:#ffffff;" transform="translate(762.03821 281.41862)scale(0.1 -0.1)">
       <defs>
        <path d="M 46.296875 24.59375 
Q 46.296875 29.40625 43.84375 31.546875 
Q 41.40625 33.703125 36.90625 33.703125 
Q 30.703125 33.703125 24.90625 31.09375 
Q 24.09375 28.5 23.640625 25.890625 
Q 23.203125 23.296875 23.203125 21 
Q 23.203125 15.5 25.453125 12 
Q 27.703125 8.5 32.796875 8.5 
Q 35.90625 8.5 38.453125 9.796875 
Q 41 11.09375 42.703125 13.296875 
Q 44.40625 15.5 45.34375 18.390625 
Q 46.296875 21.296875 46.296875 24.59375 
z
M 62.703125 59.90625 
Q 49.296875 59.703125 40.34375 54.796875 
Q 31.40625 49.90625 27.296875 40.203125 
Q 30 41.5 33.5 42.34375 
Q 37 43.203125 40.5 43.203125 
Q 48.796875 43.203125 53.390625 38.453125 
Q 58 33.703125 58 25.59375 
Q 58 19.90625 56.203125 14.953125 
Q 54.40625 10 50.953125 6.34375 
Q 47.5 2.703125 42.59375 0.59375 
Q 37.703125 -1.5 31.59375 -1.5 
Q 27.09375 -1.5 23.390625 0 
Q 19.703125 1.5 17.046875 4.34375 
Q 14.40625 7.203125 12.953125 11.296875 
Q 11.5 15.40625 11.5 20.703125 
Q 11.5 30.296875 14.796875 39.1875 
Q 18.09375 48.09375 24.390625 54.890625 
Q 30.703125 61.703125 40 65.75 
Q 49.296875 69.796875 61.5 69.796875 
Q 62 69.796875 62.703125 69.796875 
Q 63.40625 69.796875 64.203125 69.703125 
z
" id="Ubuntu-MediumItalic-54"/>
       </defs>
       <use xlink:href="#Ubuntu-MediumItalic-48"/>
       <use x="56.799988" xlink:href="#Ubuntu-MediumItalic-46"/>
       <use x="83.299973" xlink:href="#Ubuntu-MediumItalic-57"/>
       <use x="140.09996" xlink:href="#Ubuntu-MediumItalic-54"/>
      </g>
     </g>
    </g>
    <g id="ytick_11">
     <g id="line2d_35">
      <g>
       <use style="fill:#ffffff;stroke:#ffffff;stroke-width:0.8;" x="788.727273" xlink:href="#m6991baff0a" y="188.614475"/>
      </g>
     </g>
     <g id="text_31">
      <!-- 0.98 -->
      <g style="fill:#ffffff;" transform="translate(762.03821 192.494163)scale(0.1 -0.1)">
       <use xlink:href="#Ubuntu-MediumItalic-48"/>
       <use x="56.799988" xlink:href="#Ubuntu-MediumItalic-46"/>
       <use x="83.299973" xlink:href="#Ubuntu-MediumItalic-57"/>
       <use x="140.09996" xlink:href="#Ubuntu-MediumItalic-56"/>
      </g>
     </g>
    </g>
    <g id="ytick_12">
     <g id="line2d_36">
      <g>
       <use style="fill:#ffffff;stroke:#ffffff;stroke-width:0.8;" x="788.727273" xlink:href="#m6991baff0a" y="99.690018"/>
      </g>
     </g>
     <g id="text_32">
      <!-- 1.00 -->
      <g style="fill:#ffffff;" transform="translate(762.20071 103.569705)scale(0.1 -0.1)">
       <use xlink:href="#Ubuntu-MediumItalic-49"/>
       <use x="56.799988" xlink:href="#Ubuntu-MediumItalic-46"/>
       <use x="81.674973" xlink:href="#Ubuntu-MediumItalic-48"/>
       <use x="138.47496" xlink:href="#Ubuntu-MediumItalic-48"/>
      </g>
     </g>
    </g>
   </g>
   <g id="line2d_37">
    <path clip-path="url(#pba95e15c70)" d="M 811.785124 615.6 
L 814.102496 573.363387 
L 816.419868 535.255049 
L 818.73724 501.042635 
L 821.054612 470.493793 
L 823.371984 443.37617 
L 825.689356 419.457416 
L 828.006728 398.505177 
L 830.3241 380.287102 
L 832.641472 364.570839 
L 834.958844 351.124037 
L 837.276216 339.714342 
L 839.593588 330.109404 
L 841.91096 322.07687 
L 844.228332 315.384388 
L 846.545704 309.799607 
L 848.863076 305.090174 
L 851.180448 301.023738 
L 855.815192 293.890448 
L 858.132564 290.35889 
L 860.449936 286.590014 
L 865.08468 278.441877 
L 874.354168 261.445989 
L 878.988911 253.593626 
L 881.306283 250.046582 
L 883.623655 246.818569 
L 885.941027 243.888424 
L 888.258399 241.218307 
L 890.575771 238.77038 
L 895.210515 234.389739 
L 899.845259 230.443786 
L 909.114747 222.706511 
L 929.971095 204.701543 
L 936.923211 199.192371 
L 941.557955 195.742827 
L 946.192699 192.484854 
L 950.827443 189.429578 
L 955.462187 186.582118 
L 960.096931 183.92356 
L 967.049047 180.235394 
L 974.001163 176.832065 
L 980.953279 173.659272 
L 987.905395 170.781963 
L 992.540139 169.07471 
L 997.174883 167.568977 
L 1001.809627 166.271228 
L 1018.031231 162.070398 
L 1022.665975 160.552586 
L 1027.300718 158.80548 
L 1036.570206 154.972112 
L 1043.522322 152.155408 
L 1050.474438 149.648435 
L 1059.743926 146.622289 
L 1071.330786 142.813618 
L 1080.600274 139.74132 
L 1085.235018 138.365382 
L 1089.869762 137.186536 
L 1094.504506 136.245023 
L 1101.456622 135.116831 
L 1110.72611 133.633026 
L 1115.360854 132.685056 
L 1122.31297 130.953284 
L 1136.217202 127.330608 
L 1143.169318 125.89691 
L 1168.660409 121.160512 
L 1175.612525 119.825616 
L 1180.247269 119.098003 
L 1184.882013 118.577444 
L 1191.834129 118.138674 
L 1203.420989 117.58553 
L 1208.055733 117.168016 
L 1215.007849 116.228812 
L 1224.277337 114.653872 
L 1233.546825 113.086897 
L 1240.498941 112.164121 
L 1245.133685 111.765478 
L 1249.768429 111.6 
L 1254.403173 111.71906 
L 1259.037917 112.174031 
L 1263.672661 113.016284 
L 1265.990033 113.598695 
L 1268.307405 114.297192 
L 1270.624777 115.118195 
L 1272.942149 116.068126 
L 1272.942149 116.068126 
" style="fill:none;stroke:#8dd3c7;stroke-linecap:square;stroke-opacity:0.7;stroke-width:2.5;"/>
   </g>
   <g id="line2d_38">
    <path clip-path="url(#pba95e15c70)" d="M 811.785124 400.254737 
L 816.419868 387.680966 
L 821.054612 374.288977 
L 839.593588 319.475565 
L 844.228332 307.195028 
L 846.545704 301.506631 
L 848.863076 296.177288 
L 851.180448 291.250354 
L 853.49782 286.769183 
L 855.815192 282.777129 
L 858.132564 279.317547 
L 860.449936 276.414447 
L 862.767308 274.014455 
L 865.08468 272.044853 
L 867.402052 270.432924 
L 869.719424 269.105949 
L 872.036796 267.991212 
L 876.67154 266.107574 
L 881.306283 264.200266 
L 883.623655 263.070188 
L 888.258399 260.407008 
L 892.893143 257.291526 
L 897.527887 253.825815 
L 904.480003 248.193858 
L 911.432119 242.436214 
L 916.066863 238.91032 
L 918.384235 237.338186 
L 920.701607 235.936394 
L 923.018979 234.737295 
L 925.336351 233.773239 
L 927.653723 233.076577 
L 929.971095 232.661245 
L 932.288467 232.467525 
L 936.923211 232.432386 
L 941.557955 232.346096 
L 943.875327 232.088436 
L 946.192699 231.58359 
L 948.510071 230.753423 
L 950.827443 229.519803 
L 953.144815 227.834971 
L 955.462187 225.772659 
L 957.779559 223.436977 
L 967.049047 213.442685 
L 969.366419 211.301759 
L 971.683791 209.512108 
L 974.001163 208.177837 
L 976.318535 207.371117 
L 978.635907 207.036357 
L 980.953279 207.086029 
L 983.270651 207.432607 
L 985.588023 207.98856 
L 992.540139 210.037395 
L 994.857511 210.555572 
L 997.174883 210.845484 
L 999.492255 210.842289 
L 1001.809627 210.571896 
L 1004.126999 210.082897 
L 1006.444371 209.423885 
L 1011.079115 207.7902 
L 1015.713859 206.059588 
L 1018.031231 205.279419 
L 1020.348603 204.620799 
L 1022.665975 204.118864 
L 1027.300718 203.496823 
L 1034.252834 203.036087 
L 1038.887578 202.668731 
L 1041.20495 202.370545 
L 1043.522322 201.953152 
L 1048.157066 200.72478 
L 1059.743926 196.964492 
L 1062.061298 196.392829 
L 1064.37867 195.968381 
L 1066.696042 195.728467 
L 1069.013414 195.697118 
L 1071.330786 195.845186 
L 1075.96553 196.509821 
L 1085.235018 198.124796 
L 1087.55239 198.340502 
L 1089.869762 198.396114 
L 1092.187134 198.265001 
L 1096.821878 197.604793 
L 1103.773994 196.405574 
L 1106.091366 196.159739 
L 1108.408738 196.078195 
L 1110.72611 196.213346 
L 1113.043482 196.617595 
L 1115.360854 197.321865 
L 1117.678226 198.271166 
L 1122.31297 200.598977 
L 1126.947714 202.989262 
L 1129.265086 204.016655 
L 1131.582458 204.830255 
L 1133.89983 205.35359 
L 1136.217202 205.510191 
L 1138.534574 205.249232 
L 1140.851946 204.622474 
L 1143.169318 203.707324 
L 1145.48669 202.581189 
L 1154.756178 197.514932 
L 1157.07355 196.494972 
L 1159.390922 195.728467 
L 1161.708294 195.272188 
L 1164.025666 195.100357 
L 1166.343038 195.16656 
L 1168.660409 195.424381 
L 1173.295153 196.329225 
L 1180.247269 197.963277 
L 1182.564641 198.396114 
L 1184.882013 198.705441 
L 1189.516757 198.973106 
L 1194.151501 198.854211 
L 1198.786245 198.446464 
L 1205.738361 197.506987 
L 1233.546825 193.359387 
L 1240.498941 192.657562 
L 1247.451057 192.245988 
L 1252.085801 192.171429 
L 1256.720545 192.283731 
L 1261.355289 192.606037 
L 1265.990033 193.161491 
L 1270.624777 193.973238 
L 1272.942149 194.482453 
L 1272.942149 194.482453 
" style="fill:none;stroke:#feffb3;stroke-linecap:square;stroke-opacity:0.7;stroke-width:2.5;"/>
   </g>
   <g id="patch_9">
    <path d="M 788.727273 640.8 
L 788.727273 86.4 
" style="fill:none;stroke:#ffffff;stroke-linecap:square;stroke-linejoin:miter;stroke-width:0.8;"/>
   </g>
   <g id="patch_10">
    <path d="M 1296 640.8 
L 1296 86.4 
" style="fill:none;stroke:#ffffff;stroke-linecap:square;stroke-linejoin:miter;stroke-width:0.8;"/>
   </g>
   <g id="patch_11">
    <path d="M 788.727273 640.8 
L 1296 640.8 
" style="fill:none;stroke:#ffffff;stroke-linecap:square;stroke-linejoin:miter;stroke-width:0.8;"/>
   </g>
   <g id="patch_12">
    <path d="M 788.727273 86.4 
L 1296 86.4 
" style="fill:none;stroke:#ffffff;stroke-linecap:square;stroke-linejoin:miter;stroke-width:0.8;"/>
   </g>
   <g id="legend_2">
    <g id="patch_13">
     <path d="M 1109.24375 379.739062 
L 1289 379.739062 
Q 1291 379.739062 1291 377.739062 
L 1291 349.460938 
Q 1291 347.460938 1289 347.460938 
L 1109.24375 347.460938 
Q 1107.24375 347.460938 1107.24375 349.460938 
L 1107.24375 377.739062 
Q 1107.24375 379.739062 1109.24375 379.739062 
z
" style="opacity:0.8;stroke:#cccccc;stroke-linejoin:miter;"/>
    </g>
    <g id="line2d_39">
     <path d="M 1111.24375 355.720312 
L 1131.24375 355.720312 
" style="fill:none;stroke:#8dd3c7;stroke-linecap:square;stroke-opacity:0.7;stroke-width:2.5;"/>
    </g>
    <g id="line2d_40"/>
    <g id="text_33">
     <!-- sparse_categorical_accuracy -->
     <g style="fill:#ffffff;" transform="translate(1139.24375 359.220312)scale(0.1 -0.1)">
      <defs>
       <path d="M 21.703125 9.40625 
Q 22.703125 9.203125 23.796875 9.140625 
Q 24.90625 9.09375 26 9.09375 
Q 30.796875 9.09375 34.640625 10.9375 
Q 38.5 12.796875 41.203125 15.9375 
Q 43.90625 19.09375 45.34375 23.34375 
Q 46.796875 27.59375 46.796875 32.40625 
Q 46.796875 34.59375 46.296875 36.546875 
Q 45.796875 38.5 44.640625 40 
Q 43.5 41.5 41.546875 42.390625 
Q 39.59375 43.296875 36.59375 43.296875 
Q 34.59375 43.296875 32.796875 43.046875 
Q 31 42.796875 29.59375 42.40625 
z
M 58.90625 33.5 
Q 58.90625 26.40625 56.65625 20.15625 
Q 54.40625 13.90625 50.046875 9.203125 
Q 45.703125 4.5 39.453125 1.75 
Q 33.203125 -1 25.09375 -1 
Q 23.703125 -1 22.25 -0.84375 
Q 20.796875 -0.703125 19.40625 -0.5 
L 15 -18.5 
L 2.90625 -18.5 
L 19.40625 50.203125 
Q 23.5 51.703125 28.546875 52.59375 
Q 33.59375 53.5 38.703125 53.5 
Q 43.90625 53.5 47.75 51.953125 
Q 51.59375 50.40625 54.046875 47.703125 
Q 56.5 45 57.703125 41.34375 
Q 58.90625 37.703125 58.90625 33.5 
z
" id="Ubuntu-MediumItalic-112"/>
       <path d="M 46 41.59375 
Q 44 42.296875 41.703125 42.6875 
Q 39.40625 43.09375 36.296875 43.09375 
Q 34.59375 43.09375 32.6875 42.84375 
Q 30.796875 42.59375 29.5 42.203125 
L 19.40625 0 
L 7.296875 0 
L 19.296875 49.90625 
Q 23.5 51.296875 28.390625 52.34375 
Q 33.296875 53.40625 39 53.40625 
Q 40.203125 53.40625 41.703125 53.25 
Q 43.203125 53.09375 44.640625 52.890625 
Q 46.09375 52.703125 47.34375 52.390625 
Q 48.59375 52.09375 49.5 51.703125 
z
" id="Ubuntu-MediumItalic-114"/>
       <path d="M 9.703125 18.90625 
Q 9.703125 25.59375 11.84375 31.84375 
Q 14 38.09375 18.046875 42.9375 
Q 22.09375 47.796875 27.796875 50.6875 
Q 33.5 53.59375 40.59375 53.59375 
Q 48.203125 53.59375 52.390625 49.6875 
Q 56.59375 45.796875 56.59375 39.703125 
Q 56.59375 33.40625 53.5 29.5 
Q 50.40625 25.59375 45.453125 23.390625 
Q 40.5 21.203125 34.25 20.390625 
Q 28 19.59375 21.59375 19.40625 
Q 21.5 19.203125 21.5 19 
L 21.5 18 
Q 21.5 8.90625 33 8.90625 
Q 39.796875 8.90625 46.59375 11.703125 
L 47.59375 1.90625 
Q 45.203125 0.796875 40.796875 -0.296875 
Q 36.40625 -1.40625 30.796875 -1.40625 
Q 25.203125 -1.40625 21.203125 0.1875 
Q 17.203125 1.796875 14.640625 4.59375 
Q 12.09375 7.40625 10.890625 11.046875 
Q 9.703125 14.703125 9.703125 18.90625 
z
M 38.796875 43.703125 
Q 35.796875 43.703125 33.09375 42.5 
Q 30.40625 41.296875 28.296875 39.1875 
Q 26.203125 37.09375 24.640625 34.25 
Q 23.09375 31.40625 22.40625 28.09375 
Q 34.40625 28.5 39.84375 31 
Q 45.296875 33.5 45.296875 38.5 
Q 45.296875 40.5 43.84375 42.09375 
Q 42.40625 43.703125 38.796875 43.703125 
z
" id="Ubuntu-MediumItalic-101"/>
       <path d="M 9.703125 19.796875 
Q 9.703125 26.59375 11.84375 32.75 
Q 14 38.90625 18 43.546875 
Q 22 48.203125 27.796875 50.890625 
Q 33.59375 53.59375 41 53.59375 
Q 44.90625 53.59375 48.15625 52.9375 
Q 51.40625 52.296875 54.296875 51 
L 50 41.296875 
Q 48.203125 42.09375 46 42.6875 
Q 43.796875 43.296875 40.59375 43.296875 
Q 36.296875 43.296875 32.84375 41.546875 
Q 29.40625 39.796875 27 36.796875 
Q 24.59375 33.796875 23.296875 29.6875 
Q 22 25.59375 22 21 
Q 22 18.40625 22.546875 16.25 
Q 23.09375 14.09375 24.34375 12.4375 
Q 25.59375 10.796875 27.796875 9.890625 
Q 30 9 33.296875 9 
Q 36.703125 9 39.84375 9.890625 
Q 43 10.796875 44.703125 11.703125 
L 45.703125 1.796875 
Q 43.40625 0.703125 39.59375 -0.34375 
Q 35.796875 -1.40625 31 -1.40625 
Q 25.5 -1.40625 21.5 0.25 
Q 17.5 1.90625 14.84375 4.75 
Q 12.203125 7.59375 10.953125 11.4375 
Q 9.703125 15.296875 9.703125 19.796875 
z
" id="Ubuntu-MediumItalic-99"/>
       <path d="M 21.796875 66.09375 
L 34.40625 68.09375 
L 30.59375 52.296875 
L 47.703125 52.296875 
L 45.296875 42.296875 
L 28.203125 42.296875 
L 23.203125 21.59375 
Q 22.703125 19.40625 22.5 17.953125 
Q 22.296875 16.5 22.296875 15.296875 
Q 22.296875 14.09375 22.546875 12.9375 
Q 22.796875 11.796875 23.546875 10.9375 
Q 24.296875 10.09375 25.75 9.546875 
Q 27.203125 9 29.703125 9 
Q 32.40625 9 34.90625 9.703125 
Q 37.40625 10.40625 39.296875 11.203125 
L 40.203125 1.5 
Q 37.90625 0.5 34.40625 -0.390625 
Q 30.90625 -1.296875 26.203125 -1.296875 
Q 17.59375 -1.296875 13.890625 2.453125 
Q 10.203125 6.203125 10.203125 12.703125 
Q 10.203125 15.09375 10.546875 17.640625 
Q 10.90625 20.203125 11.59375 23.09375 
z
" id="Ubuntu-MediumItalic-116"/>
       <path d="M 22 -8.59375 
Q 29.40625 -8.59375 33.15625 -5.1875 
Q 36.90625 -1.796875 38.203125 4.09375 
L 38.5 5.5 
Q 36.5 4.5 33.703125 3.640625 
Q 30.90625 2.796875 27.796875 2.796875 
Q 19 2.796875 14.75 7.546875 
Q 10.5 12.296875 10.5 20.203125 
Q 10.5 27.40625 13 33.5 
Q 15.5 39.59375 20.046875 44.046875 
Q 24.59375 48.5 31 51 
Q 37.40625 53.5 45.203125 53.5 
Q 49 53.5 53.34375 52.640625 
Q 57.703125 51.796875 61.203125 49.90625 
L 50.59375 5.5 
Q 49.203125 -0.40625 47.046875 -4.953125 
Q 44.90625 -9.5 41.40625 -12.546875 
Q 37.90625 -15.59375 32.75 -17.1875 
Q 27.59375 -18.796875 20.296875 -18.796875 
Q 15 -18.796875 10.75 -17.640625 
Q 6.5 -16.5 3.296875 -14.796875 
L 7.59375 -5 
Q 10.296875 -6.59375 13.84375 -7.59375 
Q 17.40625 -8.59375 22 -8.59375 
z
M 30.796875 12.59375 
Q 33.5 12.59375 36.34375 13.59375 
Q 39.203125 14.59375 41.09375 16.09375 
L 47.5 42.796875 
Q 45.203125 43.296875 43 43.296875 
Q 38.40625 43.296875 34.65625 41.59375 
Q 30.90625 39.90625 28.203125 37 
Q 25.5 34.09375 24 30.25 
Q 22.5 26.40625 22.5 22 
Q 22.5 17.59375 24.390625 15.09375 
Q 26.296875 12.59375 30.796875 12.59375 
z
" id="Ubuntu-MediumItalic-103"/>
       <path d="M 19.296875 0 
L 7.296875 0 
L 19.796875 52.296875 
L 31.90625 52.296875 
z
M 28.296875 60.203125 
Q 25.59375 60.203125 23.59375 61.796875 
Q 21.59375 63.40625 21.59375 66.59375 
Q 21.59375 70.296875 24.140625 72.6875 
Q 26.703125 75.09375 30 75.09375 
Q 32.703125 75.09375 34.75 73.4375 
Q 36.796875 71.796875 36.796875 68.59375 
Q 36.796875 64.90625 34.1875 62.546875 
Q 31.59375 60.203125 28.296875 60.203125 
z
" id="Ubuntu-MediumItalic-105"/>
       <path d="M 60.796875 52.296875 
L 53.40625 21.203125 
Q 52.90625 18.90625 52.65625 16.59375 
Q 52.40625 14.296875 52.40625 12 
Q 52.40625 9.09375 52.84375 6.296875 
Q 53.296875 3.5 54.40625 0.796875 
L 43.59375 -0.796875 
Q 43 0.296875 42.546875 1.640625 
Q 42.09375 3 41.703125 4.40625 
Q 39.203125 2.40625 35.5 0.546875 
Q 31.796875 -1.296875 26.90625 -1.296875 
Q 22.5 -1.296875 19.390625 0 
Q 16.296875 1.296875 14.34375 3.546875 
Q 12.40625 5.796875 11.546875 8.84375 
Q 10.703125 11.90625 10.703125 15.296875 
Q 10.703125 19.703125 11.90625 24.796875 
L 18.5 52.296875 
L 30.59375 52.296875 
L 24.09375 25.09375 
Q 22.796875 19.90625 22.796875 16.59375 
Q 22.796875 15 23.09375 13.59375 
Q 23.40625 12.203125 24.15625 11.140625 
Q 24.90625 10.09375 26.25 9.5 
Q 27.59375 8.90625 29.59375 8.90625 
Q 32.90625 8.90625 35.5 10.25 
Q 38.09375 11.59375 40.296875 13.90625 
Q 40.59375 18.203125 41.703125 22.703125 
L 48.703125 52.296875 
z
" id="Ubuntu-MediumItalic-117"/>
       <path d="M 58.296875 52.296875 
Q 56.296875 46.59375 53.890625 40.4375 
Q 51.5 34.296875 48.546875 28.09375 
Q 45.59375 21.90625 42.1875 15.75 
Q 38.796875 9.59375 34.90625 3.796875 
Q 32 -0.59375 28.890625 -4.640625 
Q 25.796875 -8.703125 22.140625 -11.796875 
Q 18.5 -14.90625 14.09375 -16.796875 
Q 9.703125 -18.703125 4.09375 -18.703125 
Q 1 -18.703125 -1.453125 -18 
Q -3.90625 -17.296875 -5.59375 -16.40625 
L -1.703125 -6.703125 
Q -0.296875 -7.5 1.453125 -8 
Q 3.203125 -8.5 5.296875 -8.5 
Q 10 -8.5 13.546875 -6.046875 
Q 17.09375 -3.59375 20 0.59375 
Q 16.796875 11.703125 14.59375 24.703125 
Q 12.40625 37.703125 11.703125 52.296875 
L 23.90625 52.296875 
Q 24 48.09375 24.34375 43 
Q 24.703125 37.90625 25.25 32.546875 
Q 25.796875 27.203125 26.59375 22 
Q 27.40625 16.796875 28.40625 12.40625 
Q 31.40625 17.203125 34 22.5 
Q 36.59375 27.796875 38.796875 33.046875 
Q 41 38.296875 42.640625 43.25 
Q 44.296875 48.203125 45.5 52.296875 
z
" id="Ubuntu-MediumItalic-121"/>
      </defs>
      <use xlink:href="#Ubuntu-MediumItalic-115"/>
      <use x="43.799988" xlink:href="#Ubuntu-MediumItalic-112"/>
      <use x="100.199982" xlink:href="#Ubuntu-MediumItalic-97"/>
      <use x="155.999969" xlink:href="#Ubuntu-MediumItalic-114"/>
      <use x="195.899963" xlink:href="#Ubuntu-MediumItalic-115"/>
      <use x="239.699951" xlink:href="#Ubuntu-MediumItalic-101"/>
      <use x="291.999939" xlink:href="#Ubuntu-MediumItalic-95"/>
      <use x="341.999924" xlink:href="#Ubuntu-MediumItalic-99"/>
      <use x="387.024918" xlink:href="#Ubuntu-MediumItalic-97"/>
      <use x="442.824905" xlink:href="#Ubuntu-MediumItalic-116"/>
      <use x="482.924896" xlink:href="#Ubuntu-MediumItalic-101"/>
      <use x="535.224884" xlink:href="#Ubuntu-MediumItalic-103"/>
      <use x="592.124878" xlink:href="#Ubuntu-MediumItalic-111"/>
      <use x="648.424866" xlink:href="#Ubuntu-MediumItalic-114"/>
      <use x="688.32486" xlink:href="#Ubuntu-MediumItalic-105"/>
      <use x="715.42485" xlink:href="#Ubuntu-MediumItalic-99"/>
      <use x="760.449844" xlink:href="#Ubuntu-MediumItalic-97"/>
      <use x="816.249832" xlink:href="#Ubuntu-MediumItalic-108"/>
      <use x="846.04982" xlink:href="#Ubuntu-MediumItalic-95"/>
      <use x="896.049805" xlink:href="#Ubuntu-MediumItalic-97"/>
      <use x="951.849792" xlink:href="#Ubuntu-MediumItalic-99"/>
      <use x="996.624786" xlink:href="#Ubuntu-MediumItalic-99"/>
      <use x="1042.52478" xlink:href="#Ubuntu-MediumItalic-117"/>
      <use x="1099.224777" xlink:href="#Ubuntu-MediumItalic-114"/>
      <use x="1138.374771" xlink:href="#Ubuntu-MediumItalic-97"/>
      <use x="1194.174759" xlink:href="#Ubuntu-MediumItalic-99"/>
      <use x="1241.449753" xlink:href="#Ubuntu-MediumItalic-121"/>
     </g>
    </g>
    <g id="line2d_41">
     <path d="M 1111.24375 370.359375 
L 1131.24375 370.359375 
" style="fill:none;stroke:#feffb3;stroke-linecap:square;stroke-opacity:0.7;stroke-width:2.5;"/>
    </g>
    <g id="line2d_42"/>
    <g id="text_34">
     <!-- val_sparse_categorical_accuracy -->
     <g style="fill:#ffffff;" transform="translate(1139.24375 373.859375)scale(0.1 -0.1)">
      <use xlink:href="#Ubuntu-MediumItalic-118"/>
      <use x="51.099991" xlink:href="#Ubuntu-MediumItalic-97"/>
      <use x="106.899979" xlink:href="#Ubuntu-MediumItalic-108"/>
      <use x="136.699966" xlink:href="#Ubuntu-MediumItalic-95"/>
      <use x="186.699951" xlink:href="#Ubuntu-MediumItalic-115"/>
      <use x="230.499939" xlink:href="#Ubuntu-MediumItalic-112"/>
      <use x="286.899933" xlink:href="#Ubuntu-MediumItalic-97"/>
      <use x="342.699921" xlink:href="#Ubuntu-MediumItalic-114"/>
      <use x="382.599915" xlink:href="#Ubuntu-MediumItalic-115"/>
      <use x="426.399902" xlink:href="#Ubuntu-MediumItalic-101"/>
      <use x="478.69989" xlink:href="#Ubuntu-MediumItalic-95"/>
      <use x="528.699875" xlink:href="#Ubuntu-MediumItalic-99"/>
      <use x="573.724869" xlink:href="#Ubuntu-MediumItalic-97"/>
      <use x="629.524857" xlink:href="#Ubuntu-MediumItalic-116"/>
      <use x="669.624847" xlink:href="#Ubuntu-MediumItalic-101"/>
      <use x="721.924835" xlink:href="#Ubuntu-MediumItalic-103"/>
      <use x="778.824829" xlink:href="#Ubuntu-MediumItalic-111"/>
      <use x="835.124817" xlink:href="#Ubuntu-MediumItalic-114"/>
      <use x="875.024811" xlink:href="#Ubuntu-MediumItalic-105"/>
      <use x="902.124802" xlink:href="#Ubuntu-MediumItalic-99"/>
      <use x="947.149796" xlink:href="#Ubuntu-MediumItalic-97"/>
      <use x="1002.949783" xlink:href="#Ubuntu-MediumItalic-108"/>
      <use x="1032.749771" xlink:href="#Ubuntu-MediumItalic-95"/>
      <use x="1082.749756" xlink:href="#Ubuntu-MediumItalic-97"/>
      <use x="1138.549744" xlink:href="#Ubuntu-MediumItalic-99"/>
      <use x="1183.324738" xlink:href="#Ubuntu-MediumItalic-99"/>
      <use x="1229.224731" xlink:href="#Ubuntu-MediumItalic-117"/>
      <use x="1285.924728" xlink:href="#Ubuntu-MediumItalic-114"/>
      <use x="1325.074722" xlink:href="#Ubuntu-MediumItalic-97"/>
      <use x="1380.87471" xlink:href="#Ubuntu-MediumItalic-99"/>
      <use x="1428.149704" xlink:href="#Ubuntu-MediumItalic-121"/>
     </g>
    </g>
   </g>
  </g>
  <g id="text_35">
   <!-- Training History: loss &amp; val_loss &amp; acc &amp; val_acc -->
   <g style="fill:#ffffff;" transform="translate(587.865937 23.71125)scale(0.12 -0.12)">
    <defs>
     <path d="M 73.90625 69.296875 
L 70.703125 56.203125 
L 50.40625 56.203125 
L 36.90625 0 
L 21.296875 0 
L 34.796875 56.203125 
L 14.5 56.203125 
L 17.703125 69.296875 
z
" id="Ubuntu-BoldItalic-84"/>
     <path d="M 47.203125 39.796875 
Q 45.203125 40.296875 43.25 40.75 
Q 41.296875 41.203125 37.5 41.203125 
Q 36.09375 41.203125 34.390625 40.953125 
Q 32.703125 40.703125 31.59375 40.40625 
L 21.90625 0 
L 7 0 
L 19 49.796875 
Q 23.296875 51.203125 28.640625 52.453125 
Q 34 53.703125 40.703125 53.703125 
Q 43.203125 53.703125 46.25 53.25 
Q 49.296875 52.796875 51.59375 51.796875 
z
" id="Ubuntu-BoldItalic-114"/>
     <path d="M 56.296875 22.703125 
Q 54.90625 17 55.5 11.25 
Q 56.09375 5.5 57.796875 1 
L 44.5 -0.90625 
Q 43.90625 0.296875 43.40625 1.390625 
Q 42.90625 2.5 42.40625 3.90625 
Q 39.59375 1.59375 36.1875 0.09375 
Q 32.796875 -1.40625 28.59375 -1.40625 
Q 23.59375 -1.40625 20.046875 0.34375 
Q 16.5 2.09375 14.25 5.046875 
Q 12 8 11 11.953125 
Q 10 15.90625 10 20.40625 
Q 10 27.296875 12.453125 33.390625 
Q 14.90625 39.5 19.25 44.046875 
Q 23.59375 48.59375 29.5 51.1875 
Q 35.40625 53.796875 42.296875 53.796875 
Q 43.203125 53.796875 45.453125 53.6875 
Q 47.703125 53.59375 50.59375 53.25 
Q 53.5 52.90625 56.703125 52.09375 
Q 59.90625 51.296875 62.796875 49.90625 
z
M 45.90625 41.09375 
Q 44.59375 41.296875 43.546875 41.390625 
Q 42.5 41.5 41 41.5 
Q 37.59375 41.5 34.640625 39.796875 
Q 31.703125 38.09375 29.5 35.34375 
Q 27.296875 32.59375 26.046875 29 
Q 24.796875 25.40625 24.796875 21.5 
Q 24.796875 16.703125 26.390625 13.890625 
Q 28 11.09375 32.296875 11.09375 
Q 34.59375 11.09375 36.4375 12 
Q 38.296875 12.90625 40.40625 15 
Q 40.59375 17.5 41.046875 20.25 
Q 41.5 23 42 25.296875 
z
" id="Ubuntu-BoldItalic-97"/>
     <path d="M 21.796875 0 
L 7 0 
L 19.5 52.59375 
L 34.40625 52.59375 
z
M 29 59 
Q 25.90625 59 23.40625 60.84375 
Q 20.90625 62.703125 20.90625 66.5 
Q 20.90625 68.59375 21.75 70.4375 
Q 22.59375 72.296875 24 73.640625 
Q 25.40625 75 27.25 75.796875 
Q 29.09375 76.59375 31.203125 76.59375 
Q 34.296875 76.59375 36.796875 74.75 
Q 39.296875 72.90625 39.296875 69.09375 
Q 39.296875 67 38.4375 65.140625 
Q 37.59375 63.296875 36.1875 61.9375 
Q 34.796875 60.59375 32.9375 59.796875 
Q 31.09375 59 29 59 
z
" id="Ubuntu-BoldItalic-105"/>
     <path d="M 19.09375 50.203125 
Q 20.796875 50.703125 22.84375 51.34375 
Q 24.90625 52 27.453125 52.546875 
Q 30 53.09375 33.140625 53.4375 
Q 36.296875 53.796875 40.296875 53.796875 
Q 52.09375 53.796875 56.5 47 
Q 60.90625 40.203125 58 28.40625 
L 51.203125 0 
L 36.296875 0 
L 42.90625 27.796875 
Q 43.5 30.40625 43.84375 32.84375 
Q 44.203125 35.296875 43.796875 37.140625 
Q 43.40625 39 41.953125 40.140625 
Q 40.5 41.296875 37.5 41.296875 
Q 34.59375 41.296875 31.59375 40.703125 
L 21.90625 0 
L 7 0 
z
" id="Ubuntu-BoldItalic-110"/>
     <path d="M 52.40625 6.59375 
Q 50.90625 0.09375 48.453125 -4.65625 
Q 46 -9.40625 42.34375 -12.546875 
Q 38.703125 -15.703125 33.59375 -17.25 
Q 28.5 -18.796875 21.703125 -18.796875 
Q 15.40625 -18.796875 11.09375 -17.640625 
Q 6.796875 -16.5 3.296875 -14.796875 
L 8.296875 -3 
Q 11.40625 -4.40625 14.75 -5.40625 
Q 18.09375 -6.40625 23 -6.40625 
Q 29.40625 -6.40625 32.65625 -3.546875 
Q 35.90625 -0.703125 36.90625 3.796875 
L 37.296875 5.703125 
Q 35.296875 4.703125 33.046875 4.09375 
Q 30.796875 3.5 28.296875 3.5 
Q 23.59375 3.5 20.1875 4.953125 
Q 16.796875 6.40625 14.640625 9 
Q 12.5 11.59375 11.453125 15.140625 
Q 10.40625 18.703125 10.40625 22.90625 
Q 10.40625 30.5 13.203125 36.34375 
Q 16 42.203125 20.640625 46.09375 
Q 25.296875 50 31.34375 52 
Q 37.40625 54 44 54 
Q 48.796875 54 53.5 53 
Q 58.203125 52 62.703125 49.90625 
z
M 45.796875 41.09375 
Q 44.09375 41.5 41.59375 41.5 
Q 37.796875 41.5 34.796875 40.140625 
Q 31.796875 38.796875 29.640625 36.5 
Q 27.5 34.203125 26.34375 30.953125 
Q 25.203125 27.703125 25.203125 24 
Q 25.203125 22.203125 25.5 20.640625 
Q 25.796875 19.09375 26.59375 17.9375 
Q 27.40625 16.796875 28.796875 16.09375 
Q 30.203125 15.40625 32.296875 15.40625 
Q 33.703125 15.40625 36.046875 15.90625 
Q 38.40625 16.40625 40.296875 18.203125 
z
" id="Ubuntu-BoldItalic-103"/>
     <path id="Ubuntu-BoldItalic-32"/>
     <path d="M 64.296875 69.296875 
L 79.90625 69.296875 
L 63.203125 0 
L 47.59375 0 
L 54.703125 29.5 
L 30.09375 29.5 
L 23 0 
L 7.5 0 
L 24.09375 69.296875 
L 39.703125 69.296875 
L 33.296875 42.703125 
L 57.90625 42.703125 
z
" id="Ubuntu-BoldItalic-72"/>
     <path d="M 24.09375 10.59375 
Q 29.203125 10.59375 31.09375 12.046875 
Q 33 13.5 33 15.203125 
Q 33 16.296875 32.640625 17.09375 
Q 32.296875 17.90625 31.5 18.59375 
Q 30.703125 19.296875 29.296875 20.046875 
Q 27.90625 20.796875 25.703125 21.796875 
Q 23.203125 22.90625 21 24.15625 
Q 18.796875 25.40625 17.140625 27.15625 
Q 15.5 28.90625 14.546875 31.15625 
Q 13.59375 33.40625 13.59375 36.5 
Q 13.59375 44.59375 19.546875 49.296875 
Q 25.5 54 36.90625 54 
Q 42.296875 54 46.5 52.796875 
Q 50.703125 51.59375 53.296875 50.203125 
L 48.203125 39.09375 
Q 46.09375 40.203125 42.796875 41.203125 
Q 39.5 42.203125 36.296875 42.203125 
Q 34.90625 42.203125 33.546875 42.046875 
Q 32.203125 41.90625 31.046875 41.40625 
Q 29.90625 40.90625 29.203125 40 
Q 28.5 39.09375 28.5 37.59375 
Q 28.5 35.59375 30.046875 34.59375 
Q 31.59375 33.59375 34.40625 32.203125 
Q 38.296875 30.296875 40.890625 28.6875 
Q 43.5 27.09375 45.046875 25.296875 
Q 46.59375 23.5 47.296875 21.203125 
Q 48 18.90625 48 15.796875 
Q 48 12.59375 46.640625 9.5 
Q 45.296875 6.40625 42.390625 4 
Q 39.5 1.59375 35 0.09375 
Q 30.5 -1.40625 24.203125 -1.40625 
Q 20.296875 -1.40625 17.140625 -0.90625 
Q 14 -0.40625 11.59375 0.34375 
Q 9.203125 1.09375 7.546875 1.890625 
Q 5.90625 2.703125 5 3.203125 
L 10.09375 14.59375 
Q 11.796875 13.59375 15.390625 12.09375 
Q 19 10.59375 24.09375 10.59375 
z
" id="Ubuntu-BoldItalic-115"/>
     <path d="M 21.296875 65.703125 
L 36.796875 68.09375 
L 33 52.59375 
L 49.59375 52.59375 
L 46.59375 40.40625 
L 30.09375 40.40625 
L 25.703125 22 
Q 25.09375 19.703125 24.9375 17.703125 
Q 24.796875 15.703125 25.4375 14.25 
Q 26.09375 12.796875 27.6875 12 
Q 29.296875 11.203125 32.09375 11.203125 
Q 34.5 11.203125 36.75 11.640625 
Q 39 12.09375 41.296875 12.90625 
L 42.40625 1.5 
Q 39.40625 0.40625 35.90625 -0.390625 
Q 32.40625 -1.203125 27.59375 -1.203125 
Q 20.703125 -1.203125 16.890625 0.84375 
Q 13.09375 2.90625 11.5 6.453125 
Q 9.90625 10 10.09375 14.59375 
Q 10.296875 19.203125 11.5 24.296875 
z
" id="Ubuntu-BoldItalic-116"/>
     <path d="M 30.796875 -1.40625 
Q 25.5 -1.40625 21.59375 0.1875 
Q 17.703125 1.796875 15.140625 4.6875 
Q 12.59375 7.59375 11.296875 11.546875 
Q 10 15.5 10 20.296875 
Q 10 26.296875 11.953125 32.296875 
Q 13.90625 38.296875 17.703125 43.09375 
Q 21.5 47.90625 27 50.953125 
Q 32.5 54 39.59375 54 
Q 44.796875 54 48.75 52.390625 
Q 52.703125 50.796875 55.25 47.890625 
Q 57.796875 45 59.09375 41.046875 
Q 60.40625 37.09375 60.40625 32.296875 
Q 60.40625 26.296875 58.5 20.296875 
Q 56.59375 14.296875 52.890625 9.5 
Q 49.203125 4.703125 43.640625 1.640625 
Q 38.09375 -1.40625 30.796875 -1.40625 
z
M 38.203125 41.40625 
Q 34.90625 41.40625 32.40625 39.5 
Q 29.90625 37.59375 28.203125 34.6875 
Q 26.5 31.796875 25.640625 28.34375 
Q 24.796875 24.90625 24.796875 21.796875 
Q 24.796875 16.703125 26.390625 13.953125 
Q 28 11.203125 32.203125 11.203125 
Q 35.5 11.203125 38 13.09375 
Q 40.5 15 42.203125 17.890625 
Q 43.90625 20.796875 44.75 24.25 
Q 45.59375 27.703125 45.59375 30.796875 
Q 45.59375 35.90625 44 38.65625 
Q 42.40625 41.40625 38.203125 41.40625 
z
" id="Ubuntu-BoldItalic-111"/>
     <path d="M 63.203125 52.59375 
Q 60.40625 45 57.546875 38.390625 
Q 54.703125 31.796875 51.59375 25.84375 
Q 48.5 19.90625 45.203125 14.5 
Q 41.90625 9.09375 38.203125 3.796875 
Q 35.5 -0.09375 32.59375 -4.09375 
Q 29.703125 -8.09375 26.140625 -11.296875 
Q 22.59375 -14.5 18.25 -16.5 
Q 13.90625 -18.5 8.203125 -18.5 
Q 4.703125 -18.5 2.203125 -17.84375 
Q -0.296875 -17.203125 -2.5 -16.09375 
L 2 -4.40625 
Q 4 -5.203125 5.59375 -5.640625 
Q 7.203125 -6.09375 9.5 -6.09375 
Q 13 -6.09375 16.140625 -3.84375 
Q 19.296875 -1.59375 21.40625 2.203125 
Q 18.796875 12.203125 16.640625 24.59375 
Q 14.5 37 13.703125 52.59375 
L 29 52.59375 
Q 29.09375 48.703125 29.390625 44 
Q 29.703125 39.296875 30.09375 34.546875 
Q 30.5 29.796875 31 25.296875 
Q 31.5 20.796875 32.09375 17.203125 
Q 36.90625 24.40625 40.546875 33.203125 
Q 44.203125 42 47.40625 52.59375 
z
" id="Ubuntu-BoldItalic-121"/>
     <path d="M 23.5 52.59375 
Q 27 52.59375 29.34375 50.640625 
Q 31.703125 48.703125 31.703125 44.5 
Q 31.703125 42.203125 30.84375 40.296875 
Q 30 38.40625 28.59375 37.046875 
Q 27.203125 35.703125 25.390625 34.953125 
Q 23.59375 34.203125 21.703125 34.203125 
Q 18.203125 34.203125 15.84375 36.140625 
Q 13.5 38.09375 13.5 42.296875 
Q 13.5 44.59375 14.34375 46.5 
Q 15.203125 48.40625 16.59375 49.75 
Q 18 51.09375 19.796875 51.84375 
Q 21.59375 52.59375 23.5 52.59375 
z
M 16 17.09375 
Q 19.5 17.09375 21.84375 15.140625 
Q 24.203125 13.203125 24.203125 9 
Q 24.203125 6.703125 23.34375 4.796875 
Q 22.5 2.90625 21.09375 1.546875 
Q 19.703125 0.203125 17.890625 -0.546875 
Q 16.09375 -1.296875 14.203125 -1.296875 
Q 10.703125 -1.296875 8.34375 0.640625 
Q 6 2.59375 6 6.796875 
Q 6 9.09375 6.84375 11 
Q 7.703125 12.90625 9.09375 14.25 
Q 10.5 15.59375 12.296875 16.34375 
Q 14.09375 17.09375 16 17.09375 
z
" id="Ubuntu-BoldItalic-58"/>
     <path d="M 28.796875 -1 
Q 21.703125 -1 17.640625 0.84375 
Q 13.59375 2.703125 11.84375 5.890625 
Q 10.09375 9.09375 10.140625 13.25 
Q 10.203125 17.40625 11.296875 22.09375 
L 24 75.203125 
L 39.5 77.59375 
L 25.59375 20 
Q 25.203125 18.203125 25.140625 16.703125 
Q 25.09375 15.203125 25.6875 14.046875 
Q 26.296875 12.90625 27.75 12.203125 
Q 29.203125 11.5 31.796875 11.296875 
z
" id="Ubuntu-BoldItalic-108"/>
     <path d="M 8 15.703125 
Q 8 23.203125 11.890625 28.640625 
Q 15.796875 34.09375 24.5 38 
L 26.203125 38.796875 
Q 24.203125 42.09375 23.25 45.34375 
Q 22.296875 48.59375 22.296875 51.703125 
Q 22.296875 55.703125 23.84375 59.25 
Q 25.40625 62.796875 28.34375 65.34375 
Q 31.296875 67.90625 35.4375 69.40625 
Q 39.59375 70.90625 44.796875 70.90625 
Q 49.09375 70.90625 52.390625 69.75 
Q 55.703125 68.59375 57.84375 66.6875 
Q 60 64.796875 61.09375 62.25 
Q 62.203125 59.703125 62.203125 56.90625 
Q 62.203125 54.40625 61.296875 51.703125 
Q 60.40625 49 58.65625 46.390625 
Q 56.90625 43.796875 54.203125 41.5 
Q 51.5 39.203125 47.90625 37.59375 
L 44.203125 35.90625 
L 52.59375 24.703125 
Q 55.09375 28.796875 57.203125 34.796875 
L 70.296875 33.09375 
Q 66 22.203125 60.203125 14.703125 
Q 62.796875 11 64.84375 7.296875 
Q 66.90625 3.59375 68.59375 0 
L 53.5 0 
Q 52.90625 1.296875 52.15625 2.6875 
Q 51.40625 4.09375 50.59375 5.59375 
Q 41.09375 -0.90625 28.90625 -0.90625 
Q 23.59375 -0.90625 19.640625 0.5 
Q 15.703125 1.90625 13.09375 4.25 
Q 10.5 6.59375 9.25 9.546875 
Q 8 12.5 8 15.703125 
z
M 30.796875 10.703125 
Q 33.40625 10.703125 36.796875 11.546875 
Q 40.203125 12.40625 44 15 
L 32.296875 30.40625 
L 30.796875 29.703125 
Q 26.59375 27.796875 24.6875 24.6875 
Q 22.796875 21.59375 22.796875 18.59375 
Q 22.796875 15.40625 24.84375 13.046875 
Q 26.90625 10.703125 30.796875 10.703125 
z
M 35.5 51.296875 
Q 35.5 48.5 38.09375 44.203125 
L 39.296875 44.703125 
Q 44.09375 46.90625 46.75 49.453125 
Q 49.40625 52 49.40625 55.5 
Q 49.40625 57.40625 48 58.84375 
Q 46.59375 60.296875 43.59375 60.296875 
Q 40.59375 60.296875 38.046875 58.046875 
Q 35.5 55.796875 35.5 51.296875 
z
" id="Ubuntu-BoldItalic-38"/>
     <path d="M 20.09375 0 
Q 17.5 10 15.390625 23.34375 
Q 13.296875 36.703125 12.5 52.59375 
L 27.90625 52.59375 
Q 28 48.703125 28.203125 44.046875 
Q 28.40625 39.40625 28.703125 34.703125 
Q 29 30 29.390625 25.546875 
Q 29.796875 21.09375 30.296875 17.5 
Q 32.5 20.5 35.25 24.890625 
Q 38 29.296875 40.59375 34.09375 
Q 43.203125 38.90625 45.390625 43.75 
Q 47.59375 48.59375 48.796875 52.59375 
L 64.59375 52.59375 
Q 62 45.5 58.140625 38 
Q 54.296875 30.5 49.890625 23.5 
Q 45.5 16.5 40.953125 10.390625 
Q 36.40625 4.296875 32.5 0 
z
" id="Ubuntu-BoldItalic-118"/>
     <path d="M -0.203125 -6.09375 
L 49.796875 -6.09375 
L 46.90625 -18.5 
L -3 -18.5 
z
" id="Ubuntu-BoldItalic-95"/>
     <path d="M 10 21 
Q 10 27.796875 12.203125 33.796875 
Q 14.40625 39.796875 18.5 44.296875 
Q 22.59375 48.796875 28.4375 51.390625 
Q 34.296875 54 41.5 54 
Q 46 54 49.546875 53.140625 
Q 53.09375 52.296875 56 50.90625 
L 50.90625 39.296875 
Q 48.90625 40.09375 46.75 40.75 
Q 44.59375 41.40625 41.5 41.40625 
Q 34 41.40625 29.703125 36.34375 
Q 25.40625 31.296875 25.40625 22.59375 
Q 25.40625 17.5 27.59375 14.34375 
Q 29.796875 11.203125 35.703125 11.203125 
Q 38.59375 11.203125 41.296875 11.796875 
Q 44 12.40625 46.09375 13.296875 
L 47.203125 1.40625 
Q 44.40625 0.296875 41.046875 -0.546875 
Q 37.703125 -1.40625 32.90625 -1.40625 
Q 26.703125 -1.40625 22.390625 0.390625 
Q 18.09375 2.203125 15.296875 5.25 
Q 12.5 8.296875 11.25 12.390625 
Q 10 16.5 10 21 
z
" id="Ubuntu-BoldItalic-99"/>
    </defs>
    <use xlink:href="#Ubuntu-BoldItalic-84"/>
    <use x="52.399994" xlink:href="#Ubuntu-BoldItalic-114"/>
    <use x="93.374985" xlink:href="#Ubuntu-BoldItalic-97"/>
    <use x="152.174973" xlink:href="#Ubuntu-BoldItalic-105"/>
    <use x="180.47496" xlink:href="#Ubuntu-BoldItalic-110"/>
    <use x="237.174957" xlink:href="#Ubuntu-BoldItalic-105"/>
    <use x="265.474945" xlink:href="#Ubuntu-BoldItalic-110"/>
    <use x="322.174942" xlink:href="#Ubuntu-BoldItalic-103"/>
    <use x="378.874939" xlink:href="#Ubuntu-BoldItalic-32"/>
    <use x="402.874924" xlink:href="#Ubuntu-BoldItalic-72"/>
    <use x="474.274918" xlink:href="#Ubuntu-BoldItalic-105"/>
    <use x="502.574905" xlink:href="#Ubuntu-BoldItalic-115"/>
    <use x="550.874893" xlink:href="#Ubuntu-BoldItalic-116"/>
    <use x="590.974884" xlink:href="#Ubuntu-BoldItalic-111"/>
    <use x="648.374878" xlink:href="#Ubuntu-BoldItalic-114"/>
    <use x="690.974869" xlink:href="#Ubuntu-BoldItalic-121"/>
    <use x="744.174866" xlink:href="#Ubuntu-BoldItalic-58"/>
    <use x="769.374863" xlink:href="#Ubuntu-BoldItalic-32"/>
    <use x="793.374847" xlink:href="#Ubuntu-BoldItalic-108"/>
    <use x="824.874832" xlink:href="#Ubuntu-BoldItalic-111"/>
    <use x="882.274826" xlink:href="#Ubuntu-BoldItalic-115"/>
    <use x="930.574814" xlink:href="#Ubuntu-BoldItalic-115"/>
    <use x="978.874802" xlink:href="#Ubuntu-BoldItalic-32"/>
    <use x="1002.874786" xlink:href="#Ubuntu-BoldItalic-38"/>
    <use x="1069.174774" xlink:href="#Ubuntu-BoldItalic-32"/>
    <use x="1093.174759" xlink:href="#Ubuntu-BoldItalic-118"/>
    <use x="1147.77475" xlink:href="#Ubuntu-BoldItalic-97"/>
    <use x="1206.574738" xlink:href="#Ubuntu-BoldItalic-108"/>
    <use x="1238.074722" xlink:href="#Ubuntu-BoldItalic-95"/>
    <use x="1288.37471" xlink:href="#Ubuntu-BoldItalic-108"/>
    <use x="1319.874695" xlink:href="#Ubuntu-BoldItalic-111"/>
    <use x="1377.274689" xlink:href="#Ubuntu-BoldItalic-115"/>
    <use x="1425.574677" xlink:href="#Ubuntu-BoldItalic-115"/>
    <use x="1473.874664" xlink:href="#Ubuntu-BoldItalic-32"/>
    <use x="1497.874649" xlink:href="#Ubuntu-BoldItalic-38"/>
    <use x="1564.174637" xlink:href="#Ubuntu-BoldItalic-32"/>
    <use x="1588.174622" xlink:href="#Ubuntu-BoldItalic-97"/>
    <use x="1646.974609" xlink:href="#Ubuntu-BoldItalic-99"/>
    <use x="1692.474594" xlink:href="#Ubuntu-BoldItalic-99"/>
    <use x="1740.474579" xlink:href="#Ubuntu-BoldItalic-32"/>
    <use x="1764.474564" xlink:href="#Ubuntu-BoldItalic-38"/>
    <use x="1830.774551" xlink:href="#Ubuntu-BoldItalic-32"/>
    <use x="1854.774536" xlink:href="#Ubuntu-BoldItalic-118"/>
    <use x="1909.374527" xlink:href="#Ubuntu-BoldItalic-97"/>
    <use x="1968.174515" xlink:href="#Ubuntu-BoldItalic-108"/>
    <use x="1999.6745" xlink:href="#Ubuntu-BoldItalic-95"/>
    <use x="2049.974487" xlink:href="#Ubuntu-BoldItalic-97"/>
    <use x="2108.774475" xlink:href="#Ubuntu-BoldItalic-99"/>
    <use x="2154.27446" xlink:href="#Ubuntu-BoldItalic-99"/>
   </g>
  </g>
 </g>
 <defs>
  <clipPath id="pa55d19b941">
   <rect height="554.4" width="507.272727" x="180" y="86.4"/>
  </clipPath>
  <clipPath id="pba95e15c70">
   <rect height="554.4" width="507.272727" x="788.727273" y="86.4"/>
  </clipPath>
 </defs>
</svg>
